<svg width="42" height="42" viewBox="0 0 18 18" fill="none" xmlns="http://www.w3.org/2000/svg">
<mask id="path-1-inside-1_2984_920" fill="white">
<path fill-rule="evenodd" clip-rule="evenodd" d="M7.35498 6.53094C7.85218 6.53208 8.33787 6.67768 8.75071 6.94936C9.16355 7.22103 9.48501 7.60659 9.67448 8.05731C9.86395 8.50804 9.91292 9.00372 9.81521 9.48173C9.7175 9.95974 9.4775 10.3986 9.12552 10.7429C8.77354 11.0873 8.32538 11.3216 7.83765 11.4163C7.34992 11.511 6.84451 11.4618 6.38527 11.275C5.92603 11.0881 5.53357 10.772 5.25746 10.3666C4.98135 9.96118 4.83399 9.48461 4.83398 8.9971C4.83398 8.67275 4.89923 8.35159 5.026 8.05201C5.15276 7.75243 5.33855 7.48031 5.57272 7.25123C5.80689 7.02215 6.08485 6.84062 6.39068 6.71702C6.69651 6.59342 7.02419 6.53019 7.35498 6.53094ZM13.3755 14.4924V13.24H9.88183C10.1853 12.9709 10.4619 12.6742 10.708 12.3538H13.8252C13.9445 12.3541 14.0588 12.4007 14.1433 12.4832C14.2278 12.5658 14.2756 12.6777 14.2764 12.7947V14.4924C14.5677 14.5963 14.8124 14.7975 14.9675 15.0607C15.1225 15.3239 15.1781 15.6322 15.1243 15.9316C15.0705 16.2309 14.9109 16.5021 14.6734 16.6975C14.436 16.8929 14.1359 17 13.8259 17C13.5159 17 13.2159 16.8929 12.9784 16.6975C12.741 16.5021 12.5813 16.2309 12.5276 15.9316C12.4738 15.6322 12.5293 15.3239 12.6844 15.0607C12.8395 14.7975 13.0841 14.5963 13.3755 14.4924ZM13.0605 5.402H11.061C10.8669 5.08918 10.6459 4.79318 10.4004 4.51723H12.6108V3.51181C12.3185 3.41075 12.0718 3.21191 11.9141 2.95021C11.7564 2.68852 11.6979 2.38071 11.7486 2.08087C11.7994 1.78102 11.9564 1.50832 12.1919 1.31066C12.4274 1.113 12.7264 1.00303 13.0363 1.00006C13.3463 0.997096 13.6474 1.10133 13.8868 1.29444C14.1262 1.48756 14.2885 1.75721 14.3453 2.05603C14.402 2.35485 14.3496 2.66371 14.1971 2.92837C14.0447 3.19303 13.802 3.39656 13.5117 3.5032V4.96105C13.5117 5.01908 13.5 5.07654 13.4773 5.13013C13.4547 5.18372 13.4214 5.2324 13.3795 5.27336C13.3376 5.31433 13.2878 5.34678 13.2331 5.36885C13.1784 5.39093 13.1197 5.40219 13.0605 5.402ZM18 3.14556C17.9994 2.91297 17.9348 2.68486 17.813 2.48527C17.6912 2.28568 17.5168 2.122 17.3081 2.01148C17.0994 1.90097 16.8641 1.84772 16.6271 1.85734C16.3901 1.86696 16.1601 1.9391 15.9615 2.06615C15.7628 2.1932 15.6027 2.37046 15.4982 2.57924C15.3937 2.78802 15.3485 3.02058 15.3675 3.25242C15.3865 3.48425 15.4689 3.70677 15.6061 3.89651C15.7433 4.08625 15.9302 4.23619 16.147 4.33051V6.91588H11.7363C11.8201 7.206 11.8823 7.5017 11.9224 7.80065H16.5967C16.716 7.79989 16.8301 7.75299 16.9143 7.67015C16.9985 7.58731 17.046 7.47523 17.0464 7.35826V4.39084C17.3218 4.3131 17.5638 4.14949 17.7359 3.9248C17.908 3.7001 18.0007 3.42654 18 3.14556ZM17.978 10.3171C17.9813 10.0108 17.8736 9.7133 17.674 9.47765C17.4745 9.24199 17.196 9.08348 16.8884 9.03036C16.5807 8.97724 16.2638 9.03296 15.9942 9.18759C15.7245 9.34222 15.5196 9.58572 15.416 9.87468H11.8477C11.7857 10.175 11.7004 10.4703 11.5928 10.758H15.416C15.5196 11.0468 15.7244 11.2903 15.9939 11.4449C16.2634 11.5995 16.5801 11.6554 16.8876 11.6024C17.1952 11.5495 17.4736 11.3912 17.6733 11.1559C17.873 10.9205 17.981 10.6232 17.978 10.3171ZM7.25977 16.1155H6.73828C6.50089 16.1151 6.27331 16.0225 6.10531 15.8581C5.93732 15.6936 5.84257 15.4706 5.8418 15.2379V14.3387C5.32992 14.2262 4.83679 14.0434 4.37695 13.7958L3.76465 14.3962C3.59637 14.5605 3.36857 14.6527 3.1311 14.6527C2.89364 14.6527 2.66584 14.5605 2.49756 14.3962L1.75781 13.6651C1.59063 13.4999 1.49681 13.2766 1.49681 13.0439C1.49681 12.8112 1.59063 12.5879 1.75781 12.4227L2.31592 11.8755C2.02375 11.4155 1.80307 10.9155 1.66113 10.3918H0.896485C0.659095 10.3914 0.431517 10.2988 0.263519 10.1344C0.0955213 9.96993 0.000775404 9.74693 1.19687e-06 9.51417V8.48002C-0.000191326 8.3644 0.0228442 8.24987 0.0677926 8.14297C0.112741 8.03608 0.178722 7.93891 0.261968 7.85702C0.345215 7.77513 0.444096 7.71012 0.552966 7.6657C0.661837 7.62127 0.778565 7.59831 0.896485 7.59813H1.64649C1.78554 7.06919 2.00478 6.56373 2.29688 6.09862L1.75781 5.57005C1.59107 5.40492 1.49753 5.18194 1.49753 4.94956C1.49753 4.71719 1.59107 4.49421 1.75781 4.32908L2.50342 3.59799C2.6717 3.43371 2.8995 3.34148 3.13696 3.34148C3.37443 3.34148 3.60223 3.43371 3.77051 3.59799L4.35645 4.17252C4.82143 3.91863 5.32115 3.73144 5.84033 3.61667V2.75488C5.84149 2.52211 5.93661 2.29927 6.10488 2.13508C6.27316 1.97089 6.50089 1.87872 6.73828 1.87873H7.7915C8.02072 1.88027 8.24066 1.96772 8.40625 2.12314C8.57184 2.27856 8.67054 2.49019 8.68213 2.71466V5.65623C8.28638 5.51499 7.86841 5.44304 7.44727 5.44366C7.38428 5.44366 7.32129 5.44366 7.25977 5.44366C7.19824 5.44366 7.13525 5.44366 7.07373 5.44366C6.5943 5.43418 6.11776 5.51858 5.67201 5.69193C5.22626 5.86527 4.82026 6.12408 4.47778 6.45318C4.1353 6.78229 3.86323 7.17508 3.67749 7.60857C3.49176 8.04205 3.39609 8.50752 3.39609 8.9777C3.39609 9.44789 3.49176 9.91336 3.67749 10.3468C3.86323 10.7803 4.1353 11.1731 4.47778 11.5022C4.82026 11.8313 5.22626 12.0901 5.67201 12.2635C6.11776 12.4368 6.5943 12.5212 7.07373 12.5118C7.13525 12.5118 7.19824 12.5118 7.25977 12.5118C7.32129 12.5118 7.38428 12.5118 7.44727 12.5118C7.86841 12.5124 8.28638 12.4404 8.68213 12.2992V15.2795C8.6705 15.5047 8.57118 15.717 8.40466 15.8725C8.23813 16.0281 8.01709 16.115 7.78711 16.1155H7.25977Z"/>
</mask>
<path fill-rule="evenodd" clip-rule="evenodd" d="M7.35498 6.53094C7.85218 6.53208 8.33787 6.67768 8.75071 6.94936C9.16355 7.22103 9.48501 7.60659 9.67448 8.05731C9.86395 8.50804 9.91292 9.00372 9.81521 9.48173C9.7175 9.95974 9.4775 10.3986 9.12552 10.7429C8.77354 11.0873 8.32538 11.3216 7.83765 11.4163C7.34992 11.511 6.84451 11.4618 6.38527 11.275C5.92603 11.0881 5.53357 10.772 5.25746 10.3666C4.98135 9.96118 4.83399 9.48461 4.83398 8.9971C4.83398 8.67275 4.89923 8.35159 5.026 8.05201C5.15276 7.75243 5.33855 7.48031 5.57272 7.25123C5.80689 7.02215 6.08485 6.84062 6.39068 6.71702C6.69651 6.59342 7.02419 6.53019 7.35498 6.53094ZM13.3755 14.4924V13.24H9.88183C10.1853 12.9709 10.4619 12.6742 10.708 12.3538H13.8252C13.9445 12.3541 14.0588 12.4007 14.1433 12.4832C14.2278 12.5658 14.2756 12.6777 14.2764 12.7947V14.4924C14.5677 14.5963 14.8124 14.7975 14.9675 15.0607C15.1225 15.3239 15.1781 15.6322 15.1243 15.9316C15.0705 16.2309 14.9109 16.5021 14.6734 16.6975C14.436 16.8929 14.1359 17 13.8259 17C13.5159 17 13.2159 16.8929 12.9784 16.6975C12.741 16.5021 12.5813 16.2309 12.5276 15.9316C12.4738 15.6322 12.5293 15.3239 12.6844 15.0607C12.8395 14.7975 13.0841 14.5963 13.3755 14.4924ZM13.0605 5.402H11.061C10.8669 5.08918 10.6459 4.79318 10.4004 4.51723H12.6108V3.51181C12.3185 3.41075 12.0718 3.21191 11.9141 2.95021C11.7564 2.68852 11.6979 2.38071 11.7486 2.08087C11.7994 1.78102 11.9564 1.50832 12.1919 1.31066C12.4274 1.113 12.7264 1.00303 13.0363 1.00006C13.3463 0.997096 13.6474 1.10133 13.8868 1.29444C14.1262 1.48756 14.2885 1.75721 14.3453 2.05603C14.402 2.35485 14.3496 2.66371 14.1971 2.92837C14.0447 3.19303 13.802 3.39656 13.5117 3.5032V4.96105C13.5117 5.01908 13.5 5.07654 13.4773 5.13013C13.4547 5.18372 13.4214 5.2324 13.3795 5.27336C13.3376 5.31433 13.2878 5.34678 13.2331 5.36885C13.1784 5.39093 13.1197 5.40219 13.0605 5.402ZM18 3.14556C17.9994 2.91297 17.9348 2.68486 17.813 2.48527C17.6912 2.28568 17.5168 2.122 17.3081 2.01148C17.0994 1.90097 16.8641 1.84772 16.6271 1.85734C16.3901 1.86696 16.1601 1.9391 15.9615 2.06615C15.7628 2.1932 15.6027 2.37046 15.4982 2.57924C15.3937 2.78802 15.3485 3.02058 15.3675 3.25242C15.3865 3.48425 15.4689 3.70677 15.6061 3.89651C15.7433 4.08625 15.9302 4.23619 16.147 4.33051V6.91588H11.7363C11.8201 7.206 11.8823 7.5017 11.9224 7.80065H16.5967C16.716 7.79989 16.8301 7.75299 16.9143 7.67015C16.9985 7.58731 17.046 7.47523 17.0464 7.35826V4.39084C17.3218 4.3131 17.5638 4.14949 17.7359 3.9248C17.908 3.7001 18.0007 3.42654 18 3.14556ZM17.978 10.3171C17.9813 10.0108 17.8736 9.7133 17.674 9.47765C17.4745 9.24199 17.196 9.08348 16.8884 9.03036C16.5807 8.97724 16.2638 9.03296 15.9942 9.18759C15.7245 9.34222 15.5196 9.58572 15.416 9.87468H11.8477C11.7857 10.175 11.7004 10.4703 11.5928 10.758H15.416C15.5196 11.0468 15.7244 11.2903 15.9939 11.4449C16.2634 11.5995 16.5801 11.6554 16.8876 11.6024C17.1952 11.5495 17.4736 11.3912 17.6733 11.1559C17.873 10.9205 17.981 10.6232 17.978 10.3171ZM7.25977 16.1155H6.73828C6.50089 16.1151 6.27331 16.0225 6.10531 15.8581C5.93732 15.6936 5.84257 15.4706 5.8418 15.2379V14.3387C5.32992 14.2262 4.83679 14.0434 4.37695 13.7958L3.76465 14.3962C3.59637 14.5605 3.36857 14.6527 3.1311 14.6527C2.89364 14.6527 2.66584 14.5605 2.49756 14.3962L1.75781 13.6651C1.59063 13.4999 1.49681 13.2766 1.49681 13.0439C1.49681 12.8112 1.59063 12.5879 1.75781 12.4227L2.31592 11.8755C2.02375 11.4155 1.80307 10.9155 1.66113 10.3918H0.896485C0.659095 10.3914 0.431517 10.2988 0.263519 10.1344C0.0955213 9.96993 0.000775404 9.74693 1.19687e-06 9.51417V8.48002C-0.000191326 8.3644 0.0228442 8.24987 0.0677926 8.14297C0.112741 8.03608 0.178722 7.93891 0.261968 7.85702C0.345215 7.77513 0.444096 7.71012 0.552966 7.6657C0.661837 7.62127 0.778565 7.59831 0.896485 7.59813H1.64649C1.78554 7.06919 2.00478 6.56373 2.29688 6.09862L1.75781 5.57005C1.59107 5.40492 1.49753 5.18194 1.49753 4.94956C1.49753 4.71719 1.59107 4.49421 1.75781 4.32908L2.50342 3.59799C2.6717 3.43371 2.8995 3.34148 3.13696 3.34148C3.37443 3.34148 3.60223 3.43371 3.77051 3.59799L4.35645 4.17252C4.82143 3.91863 5.32115 3.73144 5.84033 3.61667V2.75488C5.84149 2.52211 5.93661 2.29927 6.10488 2.13508C6.27316 1.97089 6.50089 1.87872 6.73828 1.87873H7.7915C8.02072 1.88027 8.24066 1.96772 8.40625 2.12314C8.57184 2.27856 8.67054 2.49019 8.68213 2.71466V5.65623C8.28638 5.51499 7.86841 5.44304 7.44727 5.44366C7.38428 5.44366 7.32129 5.44366 7.25977 5.44366C7.19824 5.44366 7.13525 5.44366 7.07373 5.44366C6.5943 5.43418 6.11776 5.51858 5.67201 5.69193C5.22626 5.86527 4.82026 6.12408 4.47778 6.45318C4.1353 6.78229 3.86323 7.17508 3.67749 7.60857C3.49176 8.04205 3.39609 8.50752 3.39609 8.9777C3.39609 9.44789 3.49176 9.91336 3.67749 10.3468C3.86323 10.7803 4.1353 11.1731 4.47778 11.5022C4.82026 11.8313 5.22626 12.0901 5.67201 12.2635C6.11776 12.4368 6.5943 12.5212 7.07373 12.5118C7.13525 12.5118 7.19824 12.5118 7.25977 12.5118C7.32129 12.5118 7.38428 12.5118 7.44727 12.5118C7.86841 12.5124 8.28638 12.4404 8.68213 12.2992V15.2795C8.6705 15.5047 8.57118 15.717 8.40466 15.8725C8.23813 16.0281 8.01709 16.115 7.78711 16.1155H7.25977Z" stroke="#E0E0E0" stroke-width="1.2" mask="url(#path-1-inside-1_2984_920)"/>
</svg>
