<svg width="42" height="42" viewBox="0 0 18 18" fill="none" xmlns="http://www.w3.org/2000/svg">
<path d="M2.84243 10.2851C2.1324 10.4317 1.39844 10.4464 0.686905 9.72955C0.211553 9.25168 -0.0261235 8.5378 0.00227806 7.7902C1.82147 9.86441 4.03829 7.3006 1.34762 5.96812C2.64661 5.36419 3.87236 5.93148 4.52261 7.10564C4.83054 7.65974 5.01441 7.94998 5.24909 8.14788C5.29161 8.18446 5.33656 8.21825 5.38363 8.24902C5.48314 7.96922 5.68575 7.73602 5.95166 7.59524C6.10183 7.51896 6.26835 7.47876 6.43747 7.47797C6.91283 7.47797 7.50478 7.75649 7.60493 8.23143C7.62633 8.22553 7.64847 8.22257 7.6707 8.22264H8.016C8.03437 8.2204 8.05295 8.2204 8.07131 8.22264C8.25383 8.23908 8.42579 8.31381 8.56081 8.43536C8.69583 8.55691 8.78643 8.71855 8.81872 8.89547C8.85188 8.88 8.88814 8.87199 8.92485 8.87202H9.27016C9.28852 8.86978 9.3071 8.86978 9.32546 8.87202C9.82025 8.94678 10.0206 9.24581 10.0908 9.62254H10.1297H10.475C10.4933 9.6203 10.5119 9.6203 10.5303 9.62254C11.0983 9.70903 11.321 10.074 11.4077 10.5138C12.4541 10.3569 13.5857 9.74128 14.6963 10.8553C14.9381 11.1165 15.1233 11.423 15.2407 11.7563C15.3581 12.0897 15.4053 12.4429 15.3795 12.7947C13.5603 10.7205 11.3435 13.2843 14.0341 14.6168C12.9175 15.1357 11.8532 14.7883 11.1641 13.9337C11.07 14.184 10.9529 14.4254 10.8143 14.6549C10.7575 14.7458 10.6992 14.8396 10.6245 14.9686C10.6237 14.972 10.6237 14.9755 10.6245 14.9788C10.5658 15.0803 10.5009 15.1782 10.4301 15.272H10.6693C10.7683 15.2724 10.8631 15.3111 10.9331 15.3798C11.0031 15.4484 11.0426 15.5414 11.043 15.6385V17.6335C11.0426 17.7306 11.0031 17.8236 10.9331 17.8922C10.8631 17.9609 10.7683 17.9996 10.6693 18H5.25358C5.15459 17.9996 5.05976 17.9609 4.98976 17.8922C4.91977 17.8236 4.88027 17.7306 4.87987 17.6335V15.6531C4.88027 15.5561 4.91977 15.4631 4.98976 15.3944C5.05976 15.3258 5.15459 15.2871 5.25358 15.2867H5.38363C5.31842 15.1068 5.27331 14.9205 5.24909 14.7311L3.38655 11.7393L3.37758 11.729C3.23019 11.5359 3.10487 11.3274 3.00387 11.1075C2.91683 10.9223 2.86225 10.7241 2.84243 10.5211C2.83642 10.4445 2.83642 10.3676 2.84243 10.291V10.2851ZM16.5948 5.40523C16.5842 5.36569 16.5654 5.32874 16.5395 5.29675C16.5171 5.26776 16.4879 5.2446 16.4543 5.22932C16.4224 5.21082 16.3866 5.19978 16.3496 5.19708C16.3113 5.196 16.273 5.20044 16.236 5.21027H16.227L15.1269 5.53862C15.0237 5.57152 14.9119 5.56663 14.8121 5.52485C14.7123 5.48307 14.6314 5.40724 14.5842 5.31141C14.5274 5.2176 14.4721 5.12525 14.4049 5.01824C14.3376 4.91123 14.2554 4.81595 14.1971 4.72506C14.1388 4.63418 14.0536 4.54623 13.9639 4.45534C13.8742 4.36446 13.8144 4.28823 13.7113 4.18709C13.6454 4.11857 13.603 4.03164 13.5899 3.93837C13.5767 3.84511 13.5936 3.75015 13.638 3.66671L14.2225 2.58929C14.2425 2.55758 14.2547 2.52171 14.2581 2.48454C14.2615 2.44738 14.256 2.40996 14.2419 2.37527C14.2323 2.3411 14.2166 2.30885 14.1956 2.27999C14.1709 2.24985 14.1397 2.22534 14.1044 2.20816L12.7202 1.48549C12.6881 1.46851 12.654 1.4557 12.6186 1.44738C12.5771 1.44659 12.5358 1.45203 12.496 1.4635C12.4617 1.4713 12.4302 1.48801 12.4048 1.51187C12.3741 1.53612 12.3491 1.56663 12.3315 1.60129L11.7934 2.59076C11.7423 2.68504 11.6592 2.75888 11.5585 2.79955C11.4578 2.84022 11.3458 2.84518 11.2418 2.81357C11.1192 2.78278 11.0041 2.75347 10.9025 2.73294C10.8009 2.71242 10.6723 2.6919 10.5497 2.67578C10.4307 2.66044 10.311 2.65114 10.191 2.64792C10.0654 2.63913 9.9488 2.64792 9.83669 2.63913C9.73624 2.64286 9.63741 2.61339 9.55609 2.55544C9.47476 2.49748 9.41565 2.41442 9.38825 2.31957L9.01454 1.13221C9.01454 1.12342 9.01454 1.12342 9.01454 1.11755C9.00443 1.08335 8.98932 1.05077 8.9697 1.02081C8.91926 0.970655 8.85275 0.939076 8.78135 0.931388C8.73979 0.928057 8.69798 0.933557 8.65878 0.947513L7.17741 1.39167C7.13705 1.40113 7.09929 1.41914 7.06679 1.44444C7.03745 1.46694 7.01347 1.49546 6.99654 1.528C6.97737 1.55957 6.96658 1.59536 6.96515 1.63207C6.96339 1.6692 6.96794 1.70635 6.9786 1.74202V1.74934L7.31493 2.82676C7.34624 2.92839 7.34003 3.03759 7.29738 3.13517C7.25473 3.23276 7.17838 3.31248 7.08174 3.36034C6.98607 3.41458 6.8919 3.46881 6.78278 3.53624C6.67366 3.60367 6.57649 3.6755 6.48381 3.74C6.39113 3.8045 6.28949 3.88659 6.1983 3.96574C6.10712 4.0449 6.0264 4.11233 5.92475 4.21494C5.85411 4.28036 5.7643 4.32234 5.668 4.33497C5.5717 4.3476 5.47379 4.33022 5.38811 4.2853L4.29091 3.71215C4.25638 3.6933 4.21817 3.68181 4.1788 3.67843C4.14415 3.67829 4.10958 3.68173 4.07566 3.68869C4.04154 3.69607 4.01006 3.71227 3.98448 3.7356C3.95331 3.76002 3.92826 3.79111 3.91123 3.82649L3.85144 3.93496C3.52016 3.87212 3.18156 3.85485 2.84542 3.88365L3.1115 3.39259C3.18707 3.2537 3.28847 3.1299 3.41047 3.02758C3.53512 2.92902 3.67763 2.85442 3.83051 2.8077C3.98409 2.76069 4.14571 2.74425 4.30586 2.75933C4.46332 2.78049 4.61539 2.8302 4.75431 2.90592L5.56599 3.33102L5.62579 3.28265C5.73042 3.19323 5.84254 3.10821 5.95465 3.02172C6.06676 2.93524 6.18784 2.84875 6.29846 2.77839L6.33732 2.75054L6.1131 2.01027C6.06262 1.86069 6.04579 1.70216 6.06377 1.54559C6.07772 1.3884 6.12454 1.23571 6.20129 1.09703C6.27454 0.957912 6.37633 0.835142 6.50026 0.736427C6.62484 0.636936 6.76803 0.562246 6.9218 0.516546L8.41512 0.0621261C8.56689 0.0135265 8.72659 -0.00685631 8.88599 0.00202533C9.04639 0.0151625 9.20221 0.0611023 9.3434 0.136886C9.48727 0.213952 9.61466 0.317471 9.7186 0.441787C9.81759 0.562638 9.88849 0.703209 9.92638 0.853697L10.1999 1.71563C10.2213 1.71777 10.2428 1.71777 10.2642 1.71563C10.3987 1.72296 10.5378 1.73908 10.6843 1.75228C10.8307 1.76547 10.9638 1.79332 11.1043 1.81971C11.1245 1.82067 11.1444 1.82565 11.1626 1.83437L11.5303 1.15567C11.6042 1.0168 11.7062 0.894195 11.8301 0.795381C11.954 0.696568 12.0971 0.623629 12.2508 0.581045H12.2598C12.41 0.534933 12.5682 0.519468 12.7247 0.535603C12.8812 0.551298 13.0332 0.595546 13.1731 0.666065L14.5558 1.39021C14.6975 1.46423 14.8238 1.56367 14.928 1.68338C15.0315 1.80424 15.1079 1.94508 15.1523 2.09676C15.2003 2.24684 15.2171 2.40487 15.2016 2.56144C15.1809 2.71606 15.1302 2.86535 15.0521 3.0012L14.6186 3.79863C14.6351 3.81476 14.653 3.83968 14.6694 3.8558C14.7591 3.95988 14.8473 4.06835 14.934 4.17829C15.0207 4.28823 15.1119 4.40697 15.1822 4.51545L15.2106 4.55502L15.9655 4.33368C16.1181 4.28462 16.2798 4.26862 16.4393 4.28677C16.5994 4.30065 16.7549 4.34601 16.8967 4.42016C17.0388 4.49171 17.164 4.59157 17.2644 4.71334V4.72506C17.3659 4.84724 17.4421 4.98766 17.4887 5.13844L17.9371 6.59112H17.9446C17.99 6.73973 18.0077 6.89516 17.9969 7.04994C17.9828 7.20711 17.936 7.35977 17.8594 7.49849C17.7836 7.63594 17.6822 7.75825 17.5604 7.8591C17.4363 7.95691 17.292 8.02695 17.1374 8.06432L16.2584 8.33258C16.2584 8.35456 16.2584 8.37948 16.2584 8.40147C16.2584 8.53487 16.236 8.66973 16.2226 8.79872C16.2226 8.79872 16.2226 8.81485 16.2226 8.82071C16.2048 8.96072 16.1793 9.09969 16.1463 9.23702L16.1359 9.28686L16.8339 9.65186C16.9769 9.72267 17.1028 9.82263 17.2032 9.94503C17.3023 10.066 17.376 10.205 17.4199 10.354V10.3643C17.4669 10.511 17.4827 10.6657 17.4662 10.8187C17.4505 10.9724 17.4048 11.1216 17.3317 11.2585L17.2211 11.4622L17.0238 11.3581C16.8764 10.9454 16.6569 10.561 16.375 10.2221C16.3541 10.1942 16.3317 10.1678 16.3078 10.1415C15.9915 9.77127 15.6091 9.46079 15.1792 9.22529C15.1926 9.17105 15.2061 9.11535 15.218 9.05965C15.2375 8.94971 15.2599 8.8339 15.2733 8.70491C15.2733 8.70491 15.2733 8.68878 15.2733 8.68292C15.2898 8.56418 15.2988 8.45717 15.3077 8.35017C15.3167 8.24316 15.3212 8.11709 15.3182 8.00275C15.3144 7.90424 15.3444 7.80733 15.4035 7.72758C15.4626 7.64783 15.5473 7.58987 15.6441 7.56299L16.8534 7.19653C16.8534 7.19653 16.8638 7.19653 16.8698 7.19653C16.9043 7.18691 16.9371 7.17207 16.967 7.15255C16.9934 7.13061 17.0144 7.10303 17.0283 7.07193C17.0461 7.03979 17.0568 7.00432 17.0597 6.96785C17.0631 6.92709 17.0574 6.88609 17.0432 6.84765L16.5948 5.39643V5.40523ZM11.5124 4.95227C11.722 5.05997 11.9189 5.18973 12.0998 5.33927C12.2807 5.48516 12.446 5.64871 12.5931 5.8274C12.7319 6.00302 12.8568 6.18875 12.9668 6.38297C13.074 6.57537 13.1601 6.77829 13.224 6.98837C13.2917 7.19987 13.3348 7.41821 13.3525 7.63922C13.3772 7.86039 13.3772 8.08355 13.3525 8.30472C13.3525 8.32085 13.3525 8.33258 13.3525 8.34284C13.3344 8.5295 13.3004 8.71435 13.2509 8.89547C13.0057 8.91892 12.7621 8.95704 12.5214 8.99955L12.3002 8.88374C12.3196 8.8339 12.336 8.7826 12.3525 8.72983C12.3978 8.57938 12.4298 8.42538 12.4481 8.26954C12.4466 8.25884 12.4466 8.24799 12.4481 8.23729C12.4654 8.06963 12.4654 7.9007 12.4481 7.73303C12.4324 7.57271 12.4014 7.41419 12.3555 7.25956C12.3083 7.10654 12.2441 6.95907 12.1641 6.8198C12.0826 6.67108 11.987 6.53022 11.8786 6.39909C11.7695 6.26728 11.6468 6.14692 11.5124 6.03995C11.2382 5.82157 10.9235 5.6573 10.5856 5.55621C10.4322 5.51178 10.2751 5.48039 10.1162 5.4624C10.1054 5.46449 10.0942 5.46449 10.0833 5.4624C9.91229 5.44695 9.74016 5.44695 9.56912 5.4624C9.40559 5.4783 9.24394 5.50922 9.08629 5.55475C8.93026 5.601 8.77987 5.66392 8.63785 5.74238C8.48622 5.82176 8.34258 5.91502 8.20884 6.0209C8.07611 6.12709 7.95443 6.24592 7.84559 6.37564C7.81121 6.41521 7.77683 6.45773 7.74395 6.50317L6.92778 6.0766C6.99296 5.9798 7.06384 5.88681 7.14004 5.79808C7.28484 5.62199 7.44762 5.46088 7.62586 5.31728C7.80456 5.18024 7.99399 5.05722 8.19239 4.94934C8.39363 4.84494 8.6043 4.75906 8.82171 4.69282C9.03541 4.62804 9.25529 4.58482 9.47794 4.56382C9.70402 4.54037 9.93199 4.54037 10.1581 4.56382C10.173 4.56382 10.1865 4.57115 10.1954 4.56382C10.4157 4.58448 10.6334 4.62571 10.8457 4.68695C11.072 4.75496 11.2916 4.84278 11.5019 4.94934L11.5124 4.95227ZM5.84852 8.47037V8.48503V8.50408V8.53487V8.55099V8.56712V8.61695V8.65067V8.66826V8.70198V8.72103V8.74009V8.79726V8.81631V8.83684V8.87348V11.5824C5.85118 11.6163 5.84669 11.6503 5.83532 11.6823C5.82394 11.7144 5.80594 11.7438 5.78243 11.7687C5.75892 11.7936 5.73041 11.8135 5.69869 11.8271C5.66698 11.8407 5.63274 11.8477 5.59813 11.8477C5.56352 11.8477 5.52929 11.8407 5.49757 11.8271C5.46586 11.8135 5.43735 11.7936 5.41384 11.7687C5.39033 11.7438 5.37232 11.7144 5.36095 11.6823C5.34958 11.6503 5.34508 11.6163 5.34775 11.5824V11.128C5.33462 11.1207 5.32212 11.1124 5.31038 11.1031L4.7558 10.7263L4.10705 10.203C4.04081 10.1483 3.96741 10.1024 3.88881 10.0667H3.71989C3.64828 10.0492 3.57303 10.0522 3.50314 10.0755C3.47639 10.0866 3.45217 10.1028 3.43189 10.1232C3.41162 10.1436 3.39569 10.1677 3.38505 10.1942H3.37011C3.33956 10.2944 3.3294 10.3995 3.34021 10.5035C3.35557 10.651 3.39652 10.7947 3.46129 10.9286C3.54783 11.1085 3.65409 11.2785 3.77819 11.4358C3.77819 11.4358 3.78865 11.4505 3.79314 11.4593L5.69156 14.5024C5.71457 14.5357 5.72894 14.5739 5.73341 14.6138C5.74958 14.8491 5.81632 15.0784 5.92924 15.2867H9.7186C9.90984 15.1444 10.067 14.9628 10.179 14.7546C10.1815 14.7498 10.1845 14.7454 10.188 14.7414C10.2418 14.6505 10.3135 14.5347 10.3838 14.4218C10.5683 14.1074 10.7119 13.7715 10.8113 13.4221V13.4133V13.3986V13.3898V13.3752V13.3649V13.3503L10.8203 13.3209V13.3063V13.2931V13.2784V13.2682V13.2535V13.2388V13.2242V13.1949V13.1802V13.167V13.1524V13.1377V13.126V13.1113V13.1011V13.0864V13.0717V13.0571V13.0468V13.0322V13.0204V13.0072V12.9926V12.9794V12.9647V12.9501V12.9369V12.8944V12.8797V12.8651V12.8519V12.8372V12.824V12.8093V12.6862V12.5396L10.8009 11.7041C10.8001 11.6924 10.8001 11.6806 10.8009 11.6689C10.8009 11.6572 10.8009 11.578 10.8009 11.4725V11.4461V11.2658V11.2379V11.0488V11.021V10.8641V10.8392V10.8128V10.785V10.7718V10.678V10.6662V10.6531V10.6399V10.6267V10.6164V10.6032V10.5915V10.5783V10.5563C10.7828 10.4487 10.7318 10.349 10.6546 10.2705C10.5775 10.192 10.4778 10.1383 10.3688 10.1165H10.1282C10.1282 10.1854 10.1282 10.2529 10.1282 10.3218V10.3364V10.3481V10.4097V10.4244V10.4346V10.442V10.4493V10.4566C10.1192 10.593 10.1117 10.7263 10.1117 10.8524C10.1117 10.9177 10.0853 10.9804 10.0382 11.0265C9.99109 11.0727 9.92721 11.0987 9.86061 11.0987C9.79401 11.0987 9.73013 11.0727 9.68303 11.0265C9.63594 10.9804 9.60948 10.9177 9.60948 10.8524C9.60948 10.7263 9.61994 10.5798 9.62891 10.4273V10.3789V10.354V10.332V10.2837V10.2587V10.2367V10.2118V10.2924V10.2426V10.1942V10.1459V10.1165C9.62891 9.74714 9.56165 9.42612 9.2582 9.37188H8.92635C8.90849 9.3742 8.89039 9.3742 8.87253 9.37188C8.87253 9.50967 8.87253 9.65333 8.86058 9.79258V9.93917C8.85161 10.0755 8.84413 10.2074 8.84413 10.3335C8.84413 10.3988 8.81767 10.4614 8.77058 10.5076C8.72348 10.5538 8.65961 10.5798 8.593 10.5798C8.5264 10.5798 8.46252 10.5538 8.41543 10.5076C8.36833 10.4614 8.34187 10.3988 8.34187 10.3335C8.34187 10.2074 8.35234 10.0608 8.36131 9.90839V9.88347V9.86148V9.83803V9.81311V9.78819V9.76327V9.71636V9.6929V9.66799V9.64746V9.62254V9.59762V9.58736C8.37326 9.17105 8.32693 8.787 7.99209 8.7269H7.66921C7.64746 8.72706 7.6258 8.72409 7.60493 8.7181V9.66945C7.60493 9.73476 7.57847 9.7974 7.53137 9.84359C7.48428 9.88977 7.4204 9.91572 7.3538 9.91572C7.28719 9.91572 7.22332 9.88977 7.17622 9.84359C7.12913 9.7974 7.10267 9.73476 7.10267 9.66945V8.46744C7.10267 8.12735 6.75886 7.98077 6.43747 7.98077C6.34705 7.98096 6.25794 8.00206 6.17738 8.04233C6.01077 8.1403 5.8896 8.29802 5.83955 8.48209L5.84852 8.47037ZM5.27749 10.2631L5.04131 10.1678C4.93397 10.1249 4.82416 10.0882 4.71245 10.0579L5.0727 10.3511L5.27749 10.5153V10.2631Z" fill="#E0E0E0"/>
</svg>
