<svg width="42" height="42" viewBox="0 0 18 18" fill="none" xmlns="http://www.w3.org/2000/svg">
<path fill-rule="evenodd" clip-rule="evenodd" d="M14.3918 2.14688C15.1668 2.14688 15.7952 2.74131 15.7952 3.47431C15.7952 4.20731 15.1668 4.80175 14.3918 4.80175C14.1149 4.80175 13.8556 4.72554 13.6373 4.5939C13.6285 4.60499 13.6183 4.61607 13.6066 4.62577L12.565 5.57493C13.2594 6.30932 13.7003 7.26263 13.756 8.31155H15.2122C15.322 7.68248 15.9007 7.20305 16.5966 7.20305C17.3715 7.20305 18 7.79748 18 8.53048C18 9.26348 17.3715 9.85792 16.5966 9.85792C15.9388 9.85792 15.3865 9.42976 15.2341 8.85056C15.2268 8.85056 15.2195 8.85195 15.2122 8.85195H13.7487C13.671 9.88702 13.2198 10.8237 12.521 11.5415L13.6242 12.5114C13.6344 12.5211 13.6447 12.5308 13.6535 12.5419C13.8673 12.4172 14.1193 12.3451 14.3903 12.3451C15.1653 12.3451 15.7938 12.9396 15.7938 13.6726C15.7938 14.4056 15.1653 15 14.3903 15C13.6154 15 12.9869 14.4056 12.9869 13.6726C12.9869 13.3899 13.0807 13.128 13.2403 12.9119L13.2359 12.9077L12.1094 11.9184C11.2905 12.5779 10.2284 12.9756 9.06959 12.9756C7.87125 12.9756 6.77838 12.5516 5.94921 11.8532L4.8124 12.9008L4.81094 12.9022C4.96622 13.1155 5.05559 13.3733 5.05559 13.6518C5.05559 14.3848 4.42712 14.9792 3.65215 14.9792C2.87719 14.9792 2.24872 14.3848 2.24872 13.6518C2.24872 12.9188 2.87719 12.3243 3.65215 12.3243C3.9261 12.3243 4.18247 12.3992 4.39928 12.528C4.40368 12.5225 4.40807 12.5183 4.41393 12.5142L5.54635 11.4708C4.87979 10.7544 4.45349 9.83436 4.3861 8.82008L2.78929 8.83532H2.7805C2.65158 9.44362 2.08464 9.90226 1.40343 9.90226C0.628469 9.90226 0 9.30782 0 8.57482C0 7.84182 0.628469 7.24739 1.40343 7.24739C2.07732 7.24739 2.64133 7.69633 2.7761 8.29631H2.78343L4.38317 8.28107C4.4447 7.25709 4.87393 6.32733 5.54635 5.60403L4.35533 4.52739C4.34655 4.51908 4.33776 4.51077 4.33043 4.50107C4.13559 4.59945 3.91145 4.65349 3.67559 4.65349C2.90063 4.65349 2.27216 4.05905 2.27216 3.32605C2.27216 2.59444 2.90063 2 3.67559 2C4.45056 2 5.07903 2.59444 5.07903 3.32744C5.07903 3.64059 4.96476 3.9288 4.77138 4.15604L5.94921 5.22021C6.77838 4.52185 7.87125 4.09785 9.06812 4.09785C10.2518 4.09785 11.333 4.51215 12.1592 5.19665L13.211 4.2378C13.2169 4.23225 13.2242 4.22671 13.2315 4.22117C13.0777 4.00778 12.9884 3.75144 12.9884 3.47431C12.9884 2.74131 13.6168 2.14688 14.3918 2.14688ZM8.41035 8.99467L8.8015 10.0824L8.9978 9.43669L8.90111 9.33692C8.85717 9.27734 8.84838 9.22469 8.87182 9.17896C8.92455 9.08058 9.0315 9.09998 9.13258 9.09998C9.23806 9.09998 9.36844 9.08058 9.40213 9.20667C9.41385 9.24824 9.3992 9.29258 9.36844 9.33692L9.27175 9.43669L9.46806 10.0824L9.82258 8.99467C10.0775 9.21221 10.8349 9.25517 11.1161 9.40482C11.2055 9.45193 11.2861 9.51151 11.3505 9.59188C11.4487 9.71381 11.5087 9.87455 11.5249 10.0768L11.5835 10.6159C11.5688 10.76 11.4824 10.8431 11.3139 10.8542H9.13697H6.92049C6.75055 10.8417 6.66412 10.7586 6.65093 10.6159L6.70953 10.0768C6.72564 9.87316 6.78571 9.71381 6.88386 9.59188C6.94832 9.51151 7.02889 9.45193 7.11826 9.40482C7.39953 9.25517 8.15545 9.21221 8.41035 8.99467ZM8.30487 7.34993C8.30927 7.35824 8.31073 7.36655 8.31073 7.37625C8.31073 7.38041 8.31074 7.38457 8.30927 7.39011L8.31659 7.44138C8.29755 7.44553 8.27997 7.44553 8.26239 7.44553C8.25507 7.4483 8.24628 7.44969 8.23895 7.44969C8.19061 7.45108 8.15545 7.45939 8.13201 7.47463C8.12029 7.48295 8.11004 7.49265 8.10564 7.50373C8.09832 7.51759 8.09539 7.53421 8.09685 7.55361C8.09832 7.61458 8.13347 7.69356 8.1994 7.7864L8.20086 7.78778L8.41914 8.11618C8.50704 8.24781 8.59787 8.38084 8.71067 8.47922C8.81761 8.57205 8.94946 8.63579 9.12086 8.63579C9.30837 8.63579 9.44462 8.57067 9.55595 8.47229C9.67315 8.36975 9.76544 8.22703 9.85627 8.08431L10.1024 7.70188C10.1522 7.59518 10.1668 7.53006 10.1507 7.49957C10.1405 7.47879 10.0965 7.47463 10.0233 7.48017C10.0013 7.48156 9.97933 7.47463 9.96468 7.46078C9.95882 7.46078 9.95296 7.46078 9.9471 7.45939L9.95003 7.44276C9.94563 7.43445 9.9427 7.42613 9.94124 7.41644C9.93831 7.39288 9.95003 7.37071 9.96761 7.35547L10.0189 7.11021C9.56914 7.10467 9.2615 7.03123 8.89672 6.81091C8.77659 6.73886 8.74143 6.65572 8.62131 6.66404C8.53048 6.68066 8.4543 6.71946 8.39424 6.78043C8.33564 6.84001 8.29316 6.92038 8.26386 7.02292L8.30487 7.34993ZM10.1668 7.35131C10.2196 7.36655 10.2577 7.39427 10.2811 7.43861C10.3177 7.50927 10.3031 7.61458 10.2342 7.76423C10.2328 7.767 10.2313 7.76977 10.2298 7.77254L9.98079 8.16052C9.8841 8.31017 9.78595 8.4612 9.65557 8.5776C9.51933 8.69953 9.34939 8.7799 9.11939 8.77851C8.90404 8.77851 8.74143 8.69953 8.60812 8.58452C8.48067 8.47367 8.38252 8.33234 8.29023 8.19378L8.07195 7.86538C7.98991 7.75037 7.94889 7.64506 7.94596 7.55916C7.94449 7.51759 7.95182 7.47879 7.96793 7.44553C7.98551 7.41089 8.01188 7.38041 8.04704 7.35824C8.06462 7.34715 8.08367 7.33745 8.10564 7.33053C8.09246 7.15455 8.08806 6.93562 8.09685 6.75272C8.10125 6.70838 8.11004 6.66404 8.12322 6.61831C8.17889 6.42987 8.31952 6.27745 8.49239 6.17352C8.55392 6.13611 8.61984 6.10563 8.69163 6.08207C9.11207 5.93797 9.66729 6.01695 9.96614 6.32179C10.0877 6.44649 10.1639 6.61 10.18 6.82893L10.1668 7.35131ZM11.9805 5.77862C11.9717 5.77169 11.9644 5.76476 11.957 5.75783C11.9526 5.75368 11.9497 5.74952 11.9453 5.74536C11.2026 5.06086 10.1888 4.63963 9.07105 4.63963C7.95035 4.63963 6.93513 5.06225 6.1924 5.74813C6.18361 5.76061 6.17335 5.77169 6.1631 5.78278C6.14845 5.79663 6.1338 5.8091 6.11622 5.82019C5.39546 6.5227 4.95011 7.48017 4.95011 8.53603C4.95011 9.61266 5.41157 10.5868 6.15724 11.292C6.90291 11.9973 7.93277 12.4338 9.07105 12.4338C10.2093 12.4338 11.2392 11.9973 11.9849 11.292C12.7305 10.5868 13.192 9.61266 13.192 8.53603C13.192 7.45939 12.7305 6.48529 11.9849 5.78L11.9805 5.77862Z" fill="#E0E0E0"/>
</svg>
