<svg width="42" height="42" viewBox="0 0 18 18" fill="none" xmlns="http://www.w3.org/2000/svg">
<path fill-rule="evenodd" clip-rule="evenodd" d="M1.03922 5.70085H2.08145V5.47293C2.08145 5.16809 2.1463 4.87749 2.26244 4.61254C2.38462 4.33761 2.56109 4.08832 2.78281 3.88034C3.00302 3.67236 3.26697 3.50427 3.55807 3.38889C3.83861 3.27778 4.1463 3.21652 4.46908 3.21652H8.61388V3.19658V2.16097C8.546 2.13818 8.48266 2.10826 8.42082 2.0755C8.33484 2.02707 8.2549 1.96866 8.18552 1.90313C8.07692 1.80057 7.98944 1.67806 7.92911 1.54131C7.8718 1.41026 7.84012 1.26496 7.84012 1.11538C7.84012 0.964387 7.8718 0.820513 7.92911 0.689459C7.98944 0.552707 8.07692 0.428775 8.18552 0.326211C8.29412 0.223647 8.42383 0.141026 8.56863 0.0840456C8.70739 0.02849 8.86124 0 9.01961 0C9.17798 0 9.33183 0.0299145 9.47059 0.0840456C9.61539 0.141026 9.74661 0.223647 9.8552 0.326211C9.9638 0.428775 10.0513 0.551282 10.1116 0.689459C10.1689 0.820513 10.2006 0.965812 10.2006 1.11538C10.2006 1.26638 10.1689 1.41026 10.1116 1.54131C10.0513 1.67806 9.9638 1.80199 9.8552 1.90313L9.84917 1.90883C9.77979 1.97293 9.70287 2.02991 9.6184 2.07692C9.55656 2.11111 9.4917 2.14103 9.42534 2.16239V3.19801V3.21795H13.5701C13.8929 3.21795 14.2006 3.2792 14.4811 3.39031C14.7738 3.5057 15.0362 3.67236 15.2564 3.88177C15.4766 4.08974 15.6546 4.33903 15.7768 4.61396C15.8944 4.88034 15.9578 5.16952 15.9578 5.47436V5.70228H16.9623C17.1011 5.70228 17.2368 5.72792 17.359 5.77635C17.4872 5.82621 17.6003 5.89886 17.6953 5.99003L17.7014 5.99573C17.7949 6.08547 17.8703 6.19088 17.9216 6.30912C17.9729 6.42593 18 6.55128 18 6.68376V9.30199C18 9.43305 17.9729 9.56125 17.9216 9.67664C17.8688 9.7963 17.7919 9.90456 17.6953 9.9943C17.5083 10.1709 17.2474 10.2821 16.9608 10.2821H15.9548C15.9502 10.5741 15.8854 10.8547 15.7722 11.1111C15.6501 11.3875 15.4736 11.6353 15.2519 11.8433C15.0317 12.0513 14.7677 12.2194 14.4766 12.3348C14.1946 12.4459 13.8884 12.5057 13.5656 12.5057H11.9698V16.2863H14.4857C14.4992 16.2664 14.5128 16.245 14.5279 16.2251C14.5581 16.1838 14.5913 16.1467 14.6275 16.1111C14.7059 16.037 14.8009 15.9758 14.908 15.9345C15.0106 15.8946 15.1222 15.8732 15.2383 15.8732C15.3529 15.8732 15.4676 15.8946 15.5686 15.9345C15.6757 15.9758 15.7692 16.037 15.8492 16.1111C15.9276 16.1852 15.9925 16.2749 16.0362 16.3761C16.0784 16.4729 16.1011 16.5783 16.1011 16.688C16.1011 16.7977 16.0769 16.9017 16.0362 17C15.9925 17.1011 15.9276 17.1909 15.8492 17.265C15.7707 17.339 15.6757 17.4003 15.5686 17.4416C15.4661 17.4815 15.3544 17.5028 15.2383 17.5028C15.1252 17.5028 15.0166 17.4829 14.914 17.443L14.908 17.4416C14.8009 17.4003 14.7074 17.339 14.6275 17.265C14.5792 17.2194 14.5354 17.1652 14.4992 17.1097C14.4796 17.0783 14.46 17.0442 14.4465 17.01H11.5852C11.4781 17.01 11.3831 16.9687 11.3122 16.9031C11.2398 16.8362 11.1976 16.745 11.1976 16.6439V12.5057H9.32579V15.9573C9.35445 15.9715 9.38311 15.9858 9.41026 16.0028C9.46154 16.0328 9.5098 16.0712 9.55204 16.1097C9.63198 16.1852 9.69532 16.2735 9.73907 16.3746C9.7813 16.4715 9.80392 16.5769 9.80392 16.6866C9.80392 16.7934 9.78281 16.896 9.74057 16.9929L9.73907 16.9986C9.69532 17.0997 9.63047 17.188 9.55204 17.2635C9.47361 17.3376 9.37858 17.3989 9.27149 17.4402C9.16893 17.4801 9.05732 17.5014 8.94118 17.5014C8.82504 17.5014 8.71342 17.4786 8.61086 17.4402C8.50377 17.3989 8.40875 17.3376 8.33032 17.2635C8.25189 17.1895 8.18703 17.0997 8.14329 16.9986C8.10256 16.9017 8.07843 16.7963 8.07843 16.6866C8.07843 16.5798 8.09955 16.4772 8.14178 16.3803L8.14329 16.3746C8.18703 16.2735 8.25189 16.1852 8.33032 16.1097C8.37104 16.0698 8.4178 16.0356 8.46757 16.0057L8.47361 16.0014C8.50075 15.9872 8.52941 15.9729 8.55807 15.9587V12.5057H6.06033V14.4103C6.06033 14.5114 6.01659 14.6011 5.94721 14.6667C5.87632 14.7336 5.7813 14.7735 5.67421 14.7735H3.90347C3.88989 14.7991 3.87481 14.8219 3.85822 14.8476C3.82805 14.8903 3.79336 14.9316 3.75264 14.9687L3.7451 14.9744C3.66667 15.0484 3.57164 15.1097 3.46456 15.151C3.36199 15.1909 3.25038 15.2123 3.13424 15.2123C3.02112 15.2123 2.91252 15.1909 2.80995 15.1524L2.80392 15.151C2.69683 15.1097 2.60332 15.0484 2.52338 14.9744C2.44495 14.9003 2.38009 14.8105 2.33635 14.7094C2.29412 14.6125 2.27149 14.5071 2.27149 14.3974C2.27149 14.2892 2.29563 14.1823 2.33635 14.084C2.38009 13.9829 2.44495 13.8932 2.52338 13.8191C2.60483 13.7464 2.70287 13.6852 2.80995 13.6439C2.91252 13.604 3.02413 13.5826 3.14027 13.5826C3.25792 13.5826 3.36953 13.6054 3.47059 13.6439C3.57315 13.6852 3.66667 13.7436 3.74359 13.8177L3.74962 13.8219C3.79336 13.8632 3.83409 13.9103 3.86727 13.9601C3.88386 13.9872 3.90196 14.0157 3.91704 14.047H5.2911V12.5057H4.47059C4.14781 12.5057 3.84012 12.4444 3.55958 12.3348C3.26697 12.2194 3.00452 12.0527 2.78431 11.8433C2.56259 11.6353 2.38462 11.386 2.26244 11.1111C2.14932 10.8547 2.08597 10.5741 2.08145 10.2821H1.03922C0.900453 10.2821 0.764706 10.2564 0.642534 10.208C0.514329 10.1581 0.401207 10.0855 0.306184 9.9943L0.300151 9.9886C0.206637 9.89886 0.131222 9.79345 0.0799397 9.67521C0.0271493 9.55983 0 9.43162 0 9.30057V6.68234C0 6.55128 0.0271493 6.42308 0.0799397 6.30769C0.13273 6.18803 0.209653 6.07977 0.306184 5.99003C0.401207 5.90028 0.515837 5.82621 0.642534 5.77635C0.764706 5.72792 0.898944 5.70085 1.03922 5.70085ZM6.88688 9.9131C6.86576 9.89744 6.84917 9.88177 6.83258 9.86182C6.78431 9.80627 6.75867 9.74217 6.75716 9.67806C6.75566 9.61254 6.77828 9.54843 6.82353 9.49145C6.84012 9.47151 6.85671 9.45442 6.87934 9.43732C6.95626 9.37749 7.05732 9.34615 7.15686 9.34473C7.25641 9.3433 7.35596 9.37037 7.4359 9.42735C7.7089 9.62536 7.97738 9.76923 8.24434 9.86467C8.5083 9.95869 8.76923 10.0028 9.02715 10C9.28658 9.99715 9.54902 9.94587 9.8175 9.85043C10.089 9.75356 10.3605 9.60826 10.638 9.42165C10.7195 9.3661 10.8205 9.34188 10.9201 9.34615C11.0196 9.35043 11.1192 9.38319 11.1946 9.44587C11.2142 9.46296 11.2308 9.48006 11.2474 9.50142C11.2911 9.55983 11.3122 9.62536 11.3077 9.69088C11.3032 9.75641 11.276 9.81909 11.2262 9.87322C11.2081 9.89174 11.1885 9.90883 11.1644 9.9245C10.8175 10.161 10.4691 10.3405 10.1146 10.4644C9.76018 10.5869 9.40121 10.6524 9.03771 10.6567C8.6727 10.661 8.31222 10.6026 7.95324 10.4801C7.59729 10.359 7.24284 10.1709 6.89442 9.9188L6.88688 9.9131ZM5.97436 5.68091C6.06184 5.68091 6.15083 5.68946 6.23379 5.70513C6.31825 5.72222 6.40272 5.74501 6.48265 5.77635C6.5641 5.80769 6.64253 5.84758 6.71342 5.89316C6.78431 5.93732 6.84917 5.98718 6.90799 6.04273L6.91704 6.04986C6.97888 6.10826 7.03469 6.17094 7.08296 6.24074L7.08597 6.24501C7.13273 6.31197 7.17345 6.38319 7.20664 6.46011C7.23982 6.53561 7.26546 6.61538 7.28205 6.69516C7.29864 6.77493 7.3092 6.85755 7.3092 6.94017C7.3092 7.02279 7.30015 7.10684 7.28205 7.18518C7.26546 7.26496 7.23982 7.3433 7.20664 7.42165C7.17345 7.49858 7.13122 7.57265 7.08296 7.6396C6.93665 7.84758 6.727 8.00855 6.48265 8.10256C6.40272 8.1339 6.31825 8.15812 6.23228 8.17521C6.14781 8.19088 6.06033 8.19801 5.97285 8.19801C5.88537 8.19801 5.79638 8.18946 5.71342 8.17521C5.62896 8.15812 5.5445 8.13533 5.46305 8.10256C5.3816 8.07123 5.30317 8.03134 5.23077 7.98575C5.15535 7.93875 5.08899 7.88604 5.02866 7.82906C4.96682 7.77065 4.91101 7.70798 4.86275 7.63818L4.85973 7.6339C4.81297 7.56695 4.77225 7.49573 4.73907 7.4188C4.70588 7.3433 4.68024 7.26353 4.66214 7.18376C4.64555 7.10399 4.63801 7.02137 4.63801 6.93875C4.63801 6.85613 4.64706 6.77208 4.66214 6.69373C4.68024 6.61396 4.70437 6.53419 4.73907 6.45869C4.77225 6.38177 4.81448 6.30769 4.86275 6.24074C4.91252 6.16952 4.96833 6.10684 5.02866 6.04986C5.0905 5.99145 5.15686 5.93875 5.23077 5.89316L5.23529 5.89031C5.30618 5.84615 5.3816 5.80769 5.46305 5.77635C5.54299 5.74501 5.62745 5.7208 5.71192 5.70513C5.79789 5.68946 5.88537 5.68091 5.97436 5.68091ZM12.0664 5.68091C12.1538 5.68091 12.2428 5.68946 12.3258 5.70513C12.4103 5.72222 12.4947 5.74501 12.5747 5.77635C12.6561 5.80769 12.7345 5.84758 12.8054 5.89316C12.8748 5.93732 12.9382 5.98575 12.997 6.04131C13 6.04416 13.0045 6.04701 13.0075 6.04986C13.0694 6.10826 13.1252 6.17094 13.1735 6.24074L13.1765 6.24501C13.2232 6.31197 13.264 6.38319 13.2971 6.46011C13.3303 6.53561 13.356 6.61538 13.3741 6.69516C13.3906 6.77493 13.3982 6.85755 13.3982 6.94017C13.3982 7.02279 13.3891 7.10684 13.3741 7.18518C13.356 7.26496 13.3318 7.34473 13.2971 7.42165C13.264 7.49858 13.2217 7.57265 13.1735 7.6396C13.1237 7.71083 13.0679 7.7735 13.0075 7.83048C12.9457 7.88889 12.8793 7.9416 12.8054 7.98718L12.8009 7.99003C12.7285 8.03419 12.6546 8.07265 12.5732 8.10399C12.4932 8.13533 12.4087 8.15954 12.3228 8.17664C12.2383 8.19231 12.1508 8.19943 12.0633 8.19943C11.9759 8.19943 11.8869 8.19088 11.8039 8.17664C11.7195 8.15954 11.635 8.13675 11.5535 8.10399C11.4706 8.07122 11.3922 8.03134 11.3228 7.98718L11.3152 7.98148C11.2443 7.9359 11.1795 7.88604 11.1207 7.83048C11.0588 7.77208 11.003 7.7094 10.9548 7.6396L10.9517 7.63533C10.905 7.56838 10.8643 7.49715 10.8311 7.42023C10.7979 7.34473 10.7722 7.26496 10.7541 7.18518C10.7376 7.10541 10.7285 7.02279 10.7285 6.94017C10.7285 6.85755 10.7376 6.7735 10.7541 6.69516C10.7722 6.61538 10.7964 6.53561 10.8311 6.46011C10.8643 6.38319 10.9065 6.30912 10.9548 6.24217C11.0045 6.17094 11.0603 6.10826 11.1207 6.05128C11.181 5.9943 11.2489 5.9416 11.3228 5.89459C11.3952 5.849 11.4721 5.81054 11.5535 5.77635C11.6335 5.74501 11.7179 5.7208 11.8024 5.70513C11.8914 5.68946 11.9789 5.68091 12.0664 5.68091ZM2.66516 5.97863V10.2507C2.66516 10.4801 2.71342 10.6994 2.80091 10.9003C2.89291 11.1083 3.02715 11.2963 3.19306 11.4544C3.36048 11.6125 3.55958 11.7393 3.77979 11.8248C3.99095 11.9074 4.22323 11.953 4.46757 11.953H13.5716C13.8145 11.953 14.0468 11.9074 14.2594 11.8248C14.4796 11.7379 14.6787 11.6111 14.8462 11.4544C15.0136 11.2963 15.1478 11.1083 15.2383 10.9003C15.3258 10.7009 15.3741 10.4815 15.3741 10.2507V5.47293C15.3741 5.24359 15.3258 5.02279 15.2383 4.82336C15.1463 4.61538 15.0121 4.42735 14.8462 4.26923C14.6787 4.11111 14.4796 3.98433 14.2594 3.89886C14.0483 3.81624 13.816 3.77066 13.5716 3.77066H4.46908C4.22624 3.77066 3.99397 3.81624 3.7813 3.89886C3.56109 3.98576 3.36199 4.11254 3.19457 4.26923C3.02715 4.42735 2.89291 4.61538 2.80241 4.82336C2.71493 5.02279 2.66667 5.24216 2.66667 5.47293L2.66516 5.97863ZM2.07994 6.25356H1.03922C0.977376 6.25356 0.918552 6.26496 0.865762 6.2849C0.809955 6.30769 0.760181 6.33903 0.717949 6.37892L0.711916 6.38319C0.6727 6.42165 0.639517 6.46724 0.618401 6.51709C0.595777 6.56695 0.585219 6.62251 0.585219 6.68091V9.29914C0.585219 9.35755 0.597285 9.41311 0.618401 9.46296C0.642534 9.51567 0.675717 9.56268 0.717949 9.60256C0.799397 9.67949 0.912519 9.72792 1.03771 9.72792H2.07994V6.25356ZM16.9653 6.25356H15.9608V9.72792H16.9653C17.0272 9.72792 17.086 9.71652 17.1388 9.69658C17.1946 9.67379 17.2443 9.64245 17.2866 9.60256C17.3288 9.56268 17.3635 9.51567 17.3861 9.46296C17.4087 9.41311 17.4193 9.35755 17.4193 9.29914V6.68234C17.4193 6.62393 17.4072 6.56838 17.3861 6.51852C17.362 6.46581 17.3288 6.4188 17.2866 6.37892C17.2443 6.33903 17.1946 6.30627 17.1388 6.2849C17.086 6.26638 17.0272 6.25356 16.9653 6.25356Z" fill="#E0E0E0"/>
</svg>
