<svg width="42" height="42" viewBox="0 0 18 18" fill="none" xmlns="http://www.w3.org/2000/svg">
<path d="M16.8606 10.519C16.5111 12.3731 15.5223 14.0029 14.1336 15.171C12.7375 16.3448 10.9376 17.0513 8.97511 17.0513C7.13037 17.0513 5.42955 16.427 4.07263 15.3785C2.68767 14.3075 1.66157 12.7936 1.2074 11.0479L2.2092 10.7881C2.60357 12.3077 3.49696 13.6272 4.70436 14.5598C5.88372 15.4719 7.364 16.014 8.97324 16.014C10.6871 16.014 12.2534 15.399 13.4664 14.3804C14.6271 13.4048 15.4663 12.0572 15.8008 10.5209H14.7317L16.3372 8.56585L17.9427 10.519H16.8606ZM11.4665 6.08938C11.4572 6.08004 11.4497 6.07443 11.4422 6.06882C11.4348 6.06322 11.4254 6.05948 11.4179 6.05574L11.4161 6.05387C11.4105 6.05013 11.403 6.04826 11.3936 6.04639C11.3862 6.04639 11.3768 6.04639 11.3656 6.04639C11.3544 6.04639 11.3432 6.04639 11.3338 6.04826C11.3245 6.05013 11.317 6.052 11.3114 6.05574L11.3077 6.05761C11.3021 6.06135 11.2946 6.06508 11.2871 6.06882C11.2796 6.07443 11.2721 6.08004 11.2628 6.08938L10.8292 6.523C10.7843 6.56785 10.7283 6.59215 10.6703 6.59776C10.6124 6.60337 10.5526 6.58841 10.5021 6.5529C10.4797 6.53795 10.4535 6.523 10.4273 6.50805C10.3956 6.48935 10.3694 6.4744 10.347 6.46319L10.3432 6.46132C10.3171 6.44637 10.289 6.43141 10.261 6.41833C10.233 6.40338 10.2031 6.3903 10.175 6.37908L10.1732 6.37721C10.147 6.36413 10.1171 6.35105 10.0853 6.33796C10.0535 6.32488 10.0236 6.31367 9.99373 6.30245L9.98812 6.30058C9.95074 6.28563 9.90402 6.27068 9.85542 6.25386L9.80683 6.2333C9.75449 6.21648 9.7115 6.18283 9.68347 6.14171C9.6517 6.09873 9.63487 6.04452 9.63487 5.99032V5.32682C9.63487 5.3156 9.63487 5.30439 9.63301 5.29504V5.29317C9.63114 5.2857 9.62927 5.27822 9.6274 5.27074C9.62366 5.26327 9.61992 5.25392 9.61431 5.24645C9.60871 5.23897 9.6031 5.23149 9.59562 5.22402C9.58815 5.21654 9.58067 5.21094 9.5732 5.20533C9.56572 5.19972 9.55824 5.19598 9.5489 5.19225C9.54142 5.18851 9.53395 5.18664 9.5246 5.18477C9.51526 5.1829 9.50591 5.1829 9.49283 5.1829H8.66111C8.64989 5.1829 8.64055 5.1829 8.6312 5.18477C8.62373 5.18664 8.61625 5.18851 8.60877 5.19225L8.60504 5.19411C8.59756 5.19785 8.59008 5.20159 8.58448 5.20533C8.577 5.21094 8.56766 5.21654 8.56018 5.22589C8.5527 5.23336 8.5471 5.24084 8.54149 5.24832C8.53588 5.25579 8.53214 5.26327 8.52841 5.27261C8.52467 5.28009 8.5228 5.28757 8.52093 5.29504C8.51906 5.30439 8.51906 5.31373 8.51906 5.32682V5.93238C8.51906 5.99406 8.49663 6.052 8.45925 6.09686C8.42187 6.14171 8.36767 6.17536 8.30786 6.1847C8.2574 6.19592 8.21067 6.209 8.16768 6.22208L8.12656 6.2333C8.06862 6.25012 8.00881 6.27255 7.949 6.29498L7.9434 6.29684C7.93966 6.29871 7.93592 6.29871 7.93031 6.30058C7.89854 6.3118 7.86677 6.32675 7.83312 6.3417C7.8107 6.35105 7.79014 6.36039 7.76771 6.36974C7.70977 6.3959 7.65557 6.42394 7.60697 6.45011C7.55651 6.47814 7.50044 6.48749 7.4481 6.48001C7.3939 6.47253 7.34157 6.44824 7.30232 6.40712C7.1528 6.24638 6.97711 6.08564 6.82011 5.92864C6.81263 5.92117 6.80329 5.91369 6.79581 5.90809L6.79207 5.90622C6.78833 5.90435 6.7846 5.90248 6.78273 5.90061C6.77899 5.89874 6.77712 5.89874 6.77338 5.89687C6.76964 5.895 6.76217 5.89313 6.75656 5.89126C6.74908 5.88939 6.73787 5.88939 6.72853 5.88939C6.71731 5.88939 6.70797 5.88939 6.69862 5.89126H6.69675C6.68928 5.89313 6.6818 5.895 6.67619 5.89687L6.67432 5.89874C6.66685 5.90248 6.65937 5.90622 6.65189 5.91182C6.64255 5.9193 6.6332 5.92678 6.62199 5.93799L6.04446 6.51926C6.03511 6.5286 6.02577 6.53795 6.02016 6.54543C6.01455 6.5529 6.01082 6.56038 6.00708 6.56785L6.00521 6.57159C6.00334 6.5772 6.00147 6.58468 5.9996 6.59215C5.99773 6.6015 5.99773 6.61084 5.99773 6.62206C5.99773 6.64448 6.00147 6.66131 6.00708 6.67626C6.01455 6.69121 6.02577 6.70803 6.04259 6.72485L6.47621 7.15847C6.52106 7.20333 6.54536 7.2594 6.55097 7.31734C6.55657 7.37528 6.54162 7.43509 6.50611 7.48555C6.49116 7.50985 6.47621 7.53415 6.46125 7.56031C6.44256 7.59209 6.42761 7.61825 6.4164 7.64068L6.41453 7.64442C6.39957 7.67058 6.38462 7.69862 6.37154 7.72666C6.35659 7.75469 6.34537 7.7846 6.33229 7.81263L6.33042 7.8145C6.31734 7.84067 6.30425 7.87057 6.29117 7.90235C6.27809 7.93412 6.26687 7.96402 6.25566 7.99393L6.25379 7.99954C6.23884 8.03692 6.22389 8.08364 6.20706 8.13224L6.19024 8.18083C6.17342 8.23503 6.13978 8.27802 6.09679 8.30793C6.0538 8.3397 5.9996 8.35652 5.9454 8.35652H5.28189C5.26881 8.35652 5.25946 8.35652 5.25012 8.35839C5.24264 8.36026 5.2333 8.36213 5.22582 8.36587C5.21834 8.3696 5.209 8.37334 5.20152 8.37895C5.19405 8.38456 5.18657 8.39016 5.1791 8.39764C5.17162 8.40512 5.16601 8.41259 5.16041 8.42007C5.1548 8.42754 5.15106 8.43502 5.14732 8.4425C5.14358 8.45184 5.14171 8.45932 5.13985 8.46866C5.13798 8.47801 5.13798 8.48735 5.13798 8.50044V9.33216C5.13798 9.35085 5.14171 9.36954 5.14732 9.38262C5.15106 9.3901 5.1548 9.39944 5.16227 9.40879C5.16788 9.41813 5.17536 9.42561 5.18283 9.43308C5.19031 9.44056 5.19779 9.44617 5.20526 9.45178C5.21274 9.45738 5.22021 9.46112 5.22956 9.46486C5.23704 9.4686 5.24451 9.47047 5.25199 9.47233H5.25386C5.2632 9.4742 5.27255 9.4742 5.28376 9.4742H5.88933C5.95101 9.4742 6.00895 9.49663 6.0538 9.53401C6.09866 9.57139 6.1323 9.6256 6.14165 9.6854C6.15286 9.73587 6.16595 9.78259 6.17903 9.82558L6.19024 9.86483C6.19772 9.891 6.20706 9.9209 6.21828 9.95081C6.23136 9.98632 6.24071 10.0144 6.25192 10.0405C6.26314 10.0704 6.27622 10.0985 6.28743 10.1302C6.29865 10.1601 6.3136 10.19 6.32668 10.2237C6.34537 10.2667 6.36406 10.3059 6.38275 10.3414L6.41266 10.4012C6.43696 10.4498 6.44443 10.504 6.43696 10.5545C6.42948 10.6087 6.40331 10.6573 6.36406 10.6966C6.21641 10.833 6.0239 11.0218 5.88933 11.1694C5.87998 11.1788 5.87251 11.1862 5.8669 11.1937C5.86316 11.1993 5.85942 11.2031 5.85942 11.2068C5.85756 11.2105 5.85755 11.2124 5.85569 11.2161C5.85382 11.2199 5.85195 11.2255 5.85008 11.233L5.84821 11.2367C5.84634 11.2442 5.84634 11.2517 5.84634 11.261C5.84634 11.2722 5.84634 11.2816 5.84821 11.2909V11.2928C5.85008 11.3003 5.85195 11.3059 5.85382 11.3133L5.85569 11.3171C5.85755 11.3227 5.86316 11.3302 5.86877 11.3376C5.87625 11.347 5.88372 11.3582 5.89494 11.3694L6.46686 11.9507C6.47621 11.9582 6.48555 11.9656 6.49303 11.9712C6.5005 11.9768 6.50985 11.9806 6.51732 11.9843C6.52667 11.9881 6.53415 11.9899 6.54349 11.9918C6.55284 11.9937 6.56405 11.9937 6.57526 11.9937C6.58835 11.9937 6.59956 11.9937 6.60891 11.9918H6.61078C6.61825 11.9899 6.62573 11.9881 6.63134 11.9862C6.63881 11.9824 6.64816 11.9787 6.6575 11.9731C6.66498 11.9675 6.67245 11.9619 6.6818 11.9544L7.10794 11.5208C7.15093 11.4759 7.20887 11.4498 7.26681 11.4442C7.32662 11.4386 7.38643 11.4535 7.43689 11.489C7.46119 11.504 7.48548 11.5189 7.51165 11.5339C7.54342 11.5526 7.56959 11.5675 7.59202 11.5787L7.59576 11.5806C7.64996 11.6124 7.70603 11.6385 7.76397 11.6628L7.76958 11.6647C7.79574 11.6778 7.82378 11.689 7.85368 11.7021C7.88546 11.7152 7.91536 11.7264 7.94527 11.7376L7.95087 11.7395C7.98825 11.7544 8.03498 11.7712 8.08358 11.7862L8.1303 11.803C8.1845 11.8198 8.22749 11.8535 8.2574 11.8965C8.28917 11.9395 8.30599 11.9937 8.30599 12.0479V12.7114C8.30599 12.7338 8.30973 12.7525 8.31534 12.7693C8.31907 12.7768 8.32281 12.7843 8.32842 12.7917C8.33403 12.7992 8.33963 12.8067 8.34711 12.8142C8.36206 12.8291 8.37701 12.8385 8.39197 12.8459C8.40879 12.8534 8.42748 12.8553 8.44804 12.8553H9.27976C9.29845 12.8553 9.31714 12.8515 9.33022 12.8459C9.3377 12.8422 9.34704 12.8385 9.35639 12.831C9.36386 12.8254 9.37321 12.8198 9.38069 12.8104C9.38816 12.803 9.39377 12.7955 9.39938 12.788C9.40498 12.7805 9.40872 12.773 9.41246 12.7637C9.4162 12.7562 9.41807 12.7488 9.41994 12.7413C9.4218 12.7319 9.4218 12.7226 9.4218 12.7095V12.1039C9.4218 12.0423 9.44423 11.9843 9.48161 11.9395C9.51899 11.8946 9.5732 11.861 9.63301 11.8497C9.68347 11.8385 9.7302 11.8254 9.77318 11.8124L9.81243 11.8012C9.87037 11.7843 9.93018 11.7619 9.98999 11.7395C10.0479 11.717 10.1077 11.6909 10.1713 11.6628C10.2143 11.6442 10.2535 11.6255 10.289 11.6068L10.3488 11.5769C10.3974 11.5526 10.4516 11.5451 10.5021 11.5526C10.5563 11.56 10.6049 11.5862 10.6442 11.6255C10.7806 11.7731 10.9694 11.9656 11.117 12.1002C11.1264 12.1095 11.1338 12.117 11.1413 12.1226C11.1469 12.1264 11.1507 12.1301 11.1544 12.1301C11.1581 12.132 11.16 12.132 11.1637 12.1338C11.1675 12.1357 11.1731 12.1376 11.1806 12.1394C11.1899 12.1413 11.1993 12.1413 11.2123 12.1413C11.2236 12.1413 11.2348 12.1413 11.2441 12.1394C11.2516 12.1376 11.2572 12.1357 11.2609 12.1338L11.2647 12.132C11.2703 12.1282 11.2778 12.1245 11.2834 12.1208C11.2908 12.1151 11.2983 12.1077 11.3058 12.1021C11.3058 12.1021 11.8441 11.5713 11.8945 11.5208C11.902 11.5115 11.9095 11.5021 11.9151 11.4946C11.9207 11.4872 11.9244 11.4778 11.9282 11.4703C11.9319 11.461 11.9338 11.4535 11.9357 11.4442C11.9375 11.4348 11.9375 11.4236 11.9375 11.4124C11.9375 11.39 11.9338 11.3694 11.9282 11.3563C11.9244 11.3488 11.9207 11.3395 11.9151 11.3302C11.9095 11.3227 11.9039 11.3152 11.8964 11.3059L11.4628 10.8797C11.4179 10.8367 11.3918 10.7788 11.3862 10.7208C11.3806 10.661 11.3955 10.6012 11.431 10.5508C11.446 10.5265 11.4609 10.5022 11.4759 10.476C11.4927 10.448 11.5076 10.4199 11.5207 10.3956L11.5226 10.3919C11.5544 10.3377 11.5805 10.2816 11.6048 10.2237L11.6067 10.2181C11.6198 10.1919 11.631 10.1639 11.6441 10.134C11.6572 10.1022 11.6684 10.0723 11.6796 10.0424L11.6815 10.0368C11.6964 9.9994 11.7114 9.95268 11.7282 9.90408L11.745 9.85549C11.7618 9.80128 11.7955 9.7583 11.8385 9.72839C11.8815 9.69662 11.9357 9.6798 11.9899 9.6798H12.6534C12.6758 9.6798 12.6945 9.67606 12.7113 9.67045C12.7188 9.66671 12.7263 9.66298 12.7337 9.65737C12.7412 9.65176 12.7487 9.64616 12.7562 9.63868C12.7636 9.6312 12.7692 9.62373 12.7749 9.61625C12.7805 9.60877 12.7842 9.6013 12.7879 9.59195C12.7917 9.58448 12.7935 9.577 12.7954 9.56952C12.7973 9.56018 12.7973 9.55083 12.7973 9.53775V8.70603C12.7973 8.69482 12.7973 8.68547 12.7954 8.67613C12.7935 8.66865 12.7917 8.66117 12.7898 8.6537L12.7879 8.64996C12.7842 8.64248 12.7805 8.63501 12.7749 8.62753L12.773 8.62379C12.7674 8.61632 12.7618 8.61071 12.7543 8.60323C12.7468 8.59576 12.7393 8.59015 12.7319 8.58454C12.7244 8.57894 12.7169 8.5752 12.7076 8.57146C12.7001 8.56772 12.6926 8.56585 12.6851 8.56398C12.6758 8.56211 12.6664 8.56211 12.6534 8.56211H12.0478C11.9843 8.56211 11.9263 8.53782 11.8815 8.50044C11.8366 8.46119 11.8048 8.40885 11.7936 8.34904C11.7787 8.2911 11.7637 8.23316 11.7469 8.17522C11.7394 8.15093 11.7301 8.12102 11.7188 8.08738C11.7076 8.05561 11.6964 8.0257 11.6852 7.9958L11.6833 7.99019C11.6815 7.98645 11.6796 7.98084 11.6796 7.97524C11.6609 7.92664 11.6385 7.87618 11.6179 7.82758L11.6104 7.81076C11.5861 7.75469 11.56 7.70236 11.5301 7.65003L11.5282 7.64629C11.502 7.59582 11.4927 7.54162 11.5002 7.48929C11.5076 7.43509 11.5319 7.38275 11.5731 7.3435C11.7319 7.18277 11.8908 7.02016 12.0515 6.86129C12.0609 6.85195 12.0684 6.84447 12.074 6.837L12.0758 6.83326C12.0777 6.82952 12.0796 6.82578 12.0814 6.82391C12.0833 6.82017 12.0833 6.81831 12.0852 6.81457C12.087 6.81083 12.0889 6.80522 12.0908 6.79775C12.0927 6.79027 12.0927 6.77906 12.0927 6.76971C12.0927 6.7585 12.0927 6.74915 12.0908 6.73981V6.73794C12.0889 6.73046 12.087 6.72485 12.0852 6.71738L12.0833 6.71551C12.0796 6.70803 12.0758 6.70056 12.0702 6.69308C12.0628 6.68373 12.0553 6.67439 12.0441 6.66318L11.4665 6.08938ZM11.6179 5.57914C11.6572 5.59596 11.6946 5.61465 11.7301 5.63894C11.7656 5.66324 11.7992 5.69128 11.831 5.72305L12.416 6.30806C12.4478 6.33983 12.4758 6.37348 12.5001 6.40899C12.5244 6.4445 12.545 6.48188 12.5599 6.52113V6.523C12.5767 6.56225 12.5898 6.6015 12.5973 6.64449C12.6066 6.68747 12.6104 6.73046 12.6104 6.77345C12.6104 6.81644 12.6066 6.86129 12.5973 6.90428C12.5879 6.94727 12.5749 6.98839 12.558 7.02764C12.5412 7.06689 12.5207 7.1024 12.4945 7.13791C12.4702 7.17342 12.4422 7.2052 12.4104 7.2351L12.074 7.579C12.0777 7.58835 12.0833 7.59769 12.087 7.60517C12.1132 7.66124 12.1375 7.71918 12.1599 7.77525L12.1674 7.79394C12.173 7.80142 12.1749 7.81076 12.1768 7.82011V7.82385C12.188 7.85375 12.1992 7.88552 12.2104 7.9173C12.2216 7.95094 12.2347 7.98832 12.2459 8.02757C12.2478 8.03505 12.2515 8.04252 12.2534 8.05H12.6627C12.7057 8.05 12.7487 8.05374 12.7917 8.06308C12.8347 8.07056 12.8758 8.08364 12.915 8.10046C12.9543 8.11728 12.9917 8.13597 13.0272 8.16214C13.0627 8.18644 13.0945 8.21447 13.1262 8.24438L13.1318 8.24999L13.1356 8.25559C13.1636 8.2855 13.1916 8.31914 13.2141 8.35278C13.2384 8.38829 13.2571 8.42568 13.272 8.46306C13.2888 8.50231 13.3001 8.54342 13.3094 8.58454C13.3169 8.62566 13.3225 8.66678 13.3225 8.70977V9.54149C13.3225 9.58635 13.3187 9.62933 13.3094 9.67045C13.3019 9.71157 13.2888 9.75269 13.2739 9.79194C13.2571 9.83119 13.2384 9.86857 13.2141 9.90408C13.1898 9.93959 13.1617 9.97324 13.13 10.005C13.0982 10.0368 13.0646 10.0648 13.029 10.0891C12.9935 10.1134 12.9561 10.134 12.9169 10.1489C12.8776 10.1639 12.8384 10.177 12.7954 10.1844C12.7524 10.1919 12.7094 10.1975 12.6646 10.1975H12.1842C12.1805 10.2087 12.1768 10.2181 12.173 10.2293C12.1506 10.2872 12.1244 10.347 12.0983 10.4069C12.0852 10.4349 12.0721 10.4685 12.0571 10.4947C12.0328 10.5452 12.0104 10.5938 11.9843 10.6424L11.9749 10.6592C12.0758 10.7582 12.1786 10.8573 12.2777 10.9582C12.3076 10.99 12.3338 11.0218 12.3562 11.0573C12.3805 11.0928 12.3992 11.1302 12.4141 11.1694C12.4291 11.2068 12.4403 11.2479 12.4496 11.289C12.4571 11.332 12.4609 11.375 12.4609 11.4161C12.4609 11.4591 12.4571 11.5021 12.4496 11.5432C12.4422 11.5843 12.4309 11.6255 12.4141 11.6628C12.3992 11.7002 12.3805 11.7376 12.3581 11.7731C12.3375 11.8068 12.3113 11.8404 12.2833 11.8703C12.2758 11.8815 12.2702 11.889 12.259 11.8946L11.6871 12.4591C11.6572 12.4908 11.6235 12.5207 11.5861 12.545C11.5506 12.5693 11.5133 12.5899 11.474 12.6067H11.4721C11.4348 12.6235 11.3936 12.6347 11.3525 12.6441C11.3095 12.6534 11.2647 12.6572 11.2198 12.6572C11.1768 12.6572 11.132 12.6534 11.089 12.6441C11.046 12.6347 11.0049 12.6217 10.9638 12.6048C10.9245 12.588 10.8853 12.5675 10.8497 12.5413C10.8161 12.517 10.7825 12.489 10.7526 12.4591L10.4143 12.1208L10.3862 12.1338C10.3227 12.1619 10.2535 12.1899 10.1806 12.2198L10.175 12.2217C10.1414 12.2348 10.1077 12.246 10.0741 12.2591C10.0348 12.2721 9.99747 12.2852 9.96382 12.2946L9.94327 12.3021V12.7114C9.94327 12.7544 9.93953 12.7973 9.93018 12.8403C9.92271 12.8833 9.90962 12.9244 9.8928 12.9637C9.87598 13.0029 9.85729 13.0403 9.83112 13.0758C9.80683 13.1113 9.77879 13.1431 9.74889 13.1749L9.73954 13.1842C9.70964 13.2123 9.67599 13.2384 9.64235 13.2609C9.60684 13.2833 9.57133 13.3039 9.53395 13.3207C9.4947 13.3375 9.45358 13.3487 9.41246 13.3581C9.37134 13.3655 9.33022 13.3711 9.28723 13.3711H8.45551C8.36393 13.3711 8.27982 13.3543 8.20132 13.3225C8.12283 13.2908 8.05367 13.2422 7.99012 13.1786C7.95835 13.1469 7.93031 13.1132 7.90602 13.0777C7.88172 13.0422 7.86116 13.0048 7.84621 12.9656C7.83126 12.9263 7.81817 12.8871 7.8107 12.8441C7.80322 12.8011 7.79761 12.7581 7.79761 12.7132V12.2329C7.7864 12.2292 7.77705 12.2254 7.76584 12.2217C7.70603 12.1993 7.64809 12.1731 7.58828 12.1469C7.55838 12.1338 7.53034 12.1208 7.50231 12.1058C7.45184 12.0815 7.40138 12.0591 7.35278 12.0329L7.33596 12.0273C7.2369 12.1282 7.13784 12.231 7.03692 12.3301C7.00514 12.36 6.97337 12.3862 6.93786 12.4086C6.90235 12.4329 6.86496 12.4516 6.82572 12.4665C6.78833 12.4815 6.74722 12.4927 6.7061 12.502C6.66311 12.5095 6.62012 12.5133 6.579 12.5133C6.53788 12.5133 6.49303 12.5095 6.45191 12.502C6.41079 12.4946 6.36967 12.4833 6.33229 12.4665C6.29491 12.4516 6.25753 12.4329 6.22202 12.4105L6.21641 12.4067C6.18277 12.3862 6.15286 12.3619 6.12483 12.3357C6.11361 12.3282 6.10614 12.3226 6.10053 12.3114L5.53234 11.7357C5.50057 11.704 5.47253 11.6703 5.44824 11.6348C5.42394 11.5993 5.40338 11.5619 5.38843 11.5227V11.5208C5.37161 11.4815 5.35852 11.4423 5.35105 11.4012C5.3417 11.3582 5.33796 11.3152 5.33796 11.2703C5.33796 11.2274 5.3417 11.1825 5.35105 11.1395C5.36039 11.0965 5.37347 11.0554 5.3903 11.0162C5.40712 10.9769 5.42768 10.9414 5.45384 10.9059C5.47814 10.8722 5.50618 10.8386 5.53608 10.8106L5.87438 10.4723L5.86129 10.4442C5.84634 10.4106 5.83139 10.3769 5.81831 10.3452L5.81644 10.3414C5.80335 10.3078 5.7884 10.2742 5.77532 10.2386L5.77345 10.233C5.76037 10.1994 5.74915 10.1657 5.73607 10.1321C5.72298 10.0929 5.7099 10.0555 5.70056 10.0218C5.69869 10.0144 5.69682 10.0087 5.69495 10.0013H5.28563C5.24264 10.0013 5.19965 9.99753 5.15667 9.98819C5.11368 9.98071 5.07256 9.96763 5.03331 9.95081C4.99406 9.93399 4.95668 9.91343 4.92117 9.88913C4.88566 9.86483 4.85388 9.8368 4.82211 9.80689L4.8165 9.80128C4.7866 9.76951 4.76043 9.73587 4.73613 9.70036C4.71371 9.66485 4.69315 9.62933 4.67633 9.59195C4.6595 9.5527 4.64829 9.51158 4.63894 9.47047C4.63147 9.42935 4.62586 9.38823 4.62586 9.34524V8.51352C4.62586 8.46866 4.6296 8.42567 4.63894 8.38456C4.64642 8.34344 4.6595 8.30232 4.67446 8.26307C4.69128 8.22382 4.70997 8.18644 4.73427 8.15093C4.75856 8.11542 4.7866 8.08177 4.81837 8.05C4.88192 7.98645 4.95294 7.93786 5.03144 7.90608C5.07069 7.89113 5.10994 7.87805 5.15293 7.87057C5.19592 7.8631 5.2389 7.85749 5.28376 7.85749H5.7641C5.76784 7.84627 5.77158 7.83693 5.77532 7.82572C5.79775 7.76591 5.82391 7.70797 5.85008 7.64816C5.86316 7.61825 5.87625 7.59022 5.8912 7.56031C5.9155 7.50985 5.93979 7.45938 5.96409 7.41079L5.97343 7.39397L5.68373 7.10427C5.65383 7.07436 5.62579 7.04072 5.6015 7.00521C5.5772 6.9697 5.55664 6.93232 5.53795 6.89307C5.52113 6.85382 5.50805 6.8127 5.4987 6.76971C5.48936 6.72672 5.48562 6.68373 5.48562 6.64075C5.48562 6.59776 5.48936 6.5529 5.4987 6.50991C5.50805 6.46693 5.52113 6.42581 5.53795 6.38656C5.55477 6.34544 5.57533 6.30806 5.59963 6.27442C5.62393 6.2389 5.65196 6.20713 5.68373 6.17536C5.87625 5.98285 6.07436 5.76978 6.27248 5.58661C6.30239 5.55671 6.33603 5.52867 6.36967 5.50624C6.40518 5.48195 6.44256 5.46139 6.48181 5.44643H6.48368C6.52293 5.42961 6.56218 5.41653 6.60517 5.40905C6.64816 5.39971 6.69114 5.39597 6.73413 5.39597C6.77712 5.39597 6.82198 5.39971 6.86496 5.40905C6.90795 5.4184 6.94907 5.43148 6.98832 5.4483C7.02757 5.46512 7.06495 5.48755 7.09859 5.51185L7.10233 5.51559C7.13597 5.53989 7.16588 5.56605 7.19578 5.59596L7.53969 5.93238C7.54716 5.92864 7.55464 5.92491 7.56772 5.9193L7.59015 5.90809C7.64248 5.88566 7.69669 5.86136 7.75089 5.83893C7.76397 5.82959 7.77332 5.82772 7.7864 5.82585C7.8163 5.81463 7.84808 5.80342 7.87985 5.79221C7.9191 5.77912 7.95648 5.76604 7.99012 5.75669L8.01068 5.74922V5.33616C8.01068 5.29317 8.01442 5.25019 8.02377 5.2072C8.03124 5.16421 8.04433 5.12309 8.06115 5.08384C8.07797 5.04459 8.09666 5.00721 8.12282 4.9717C8.14712 4.93619 8.17516 4.90441 8.20506 4.87264L8.21254 4.86703C8.24431 4.83713 8.27796 4.81096 8.3116 4.78666C8.34711 4.76424 8.38262 4.74368 8.42 4.72686C8.45925 4.71003 8.50037 4.69882 8.54149 4.68947C8.58261 4.682 8.62373 4.67639 8.66671 4.67639H9.49843C9.54329 4.67639 9.58628 4.68013 9.6274 4.68947C9.66852 4.69695 9.70964 4.71003 9.74889 4.72499C9.78814 4.73994 9.82552 4.7605 9.86103 4.7848C9.89654 4.80909 9.93018 4.83713 9.96382 4.8689L9.96569 4.87077C9.99747 4.90254 10.0255 4.93619 10.0498 4.9717C10.0741 5.00721 10.0947 5.04459 10.1096 5.08384C10.1246 5.12309 10.1376 5.16234 10.1451 5.20533C10.1526 5.24832 10.1582 5.2913 10.1582 5.33616V5.8165C10.1694 5.82024 10.1788 5.82398 10.19 5.82772C10.2255 5.8408 10.261 5.85388 10.2965 5.8707L10.3003 5.87257C10.3358 5.88753 10.3694 5.90248 10.403 5.9193L10.4572 5.94547C10.5077 5.96976 10.5563 5.99219 10.6049 6.01836L10.6217 6.0277L10.9114 5.738C10.9413 5.7081 10.975 5.68006 11.0105 5.65577C11.046 5.63147 11.0834 5.61091 11.1226 5.59222C11.1619 5.5754 11.203 5.56231 11.246 5.55297C11.289 5.54362 11.332 5.53989 11.3768 5.53989C11.4198 5.53989 11.4647 5.54362 11.5058 5.55297C11.5338 5.55858 11.5618 5.56605 11.5899 5.5754C11.5974 5.57353 11.6067 5.5754 11.6179 5.57914ZM8.97137 7.12857C9.03305 7.12857 9.09659 7.1323 9.16201 7.13791C9.22556 7.14352 9.28723 7.15286 9.34704 7.16595C9.40685 7.17716 9.46666 7.19398 9.52834 7.21267C9.58815 7.23136 9.64796 7.25379 9.7059 7.27809L9.70964 7.27996C9.76571 7.30425 9.82178 7.33042 9.87411 7.36033C9.92644 7.38836 9.97691 7.42013 10.0255 7.45565L10.0274 7.45751C10.1283 7.5248 10.2161 7.59956 10.3003 7.6818L10.3021 7.68367C10.3451 7.72666 10.3844 7.77151 10.4217 7.81637C10.4591 7.8631 10.4946 7.91169 10.5283 7.96029L10.532 7.96589C10.5638 8.01636 10.5956 8.06495 10.6217 8.11542C10.6516 8.16775 10.6778 8.22195 10.704 8.27802C10.7058 8.28176 10.7077 8.2855 10.7096 8.28924C10.7114 8.29297 10.7133 8.29858 10.7133 8.30232C10.76 8.41446 10.7937 8.5266 10.8142 8.63874C10.8254 8.69855 10.8348 8.76023 10.8423 8.82378C10.8479 8.88733 10.8516 8.95087 10.8516 9.01442C10.8516 9.0761 10.8479 9.13965 10.8423 9.20506C10.8367 9.26861 10.8273 9.33029 10.8142 9.3901C10.803 9.44991 10.7862 9.50972 10.7675 9.57139C10.7488 9.6312 10.7264 9.69101 10.7021 9.74895L10.7002 9.75269C10.6516 9.86296 10.5937 9.9695 10.5264 10.0686L10.5245 10.0723C10.4909 10.1228 10.4554 10.1695 10.4199 10.2143C10.3825 10.2592 10.3432 10.3041 10.3003 10.347L10.2984 10.3452C10.2554 10.3882 10.2105 10.4274 10.1657 10.4648C10.119 10.504 10.0704 10.5377 10.0218 10.5713L10.0162 10.5751C9.96569 10.6068 9.9171 10.6386 9.86663 10.6648C9.8143 10.6947 9.7601 10.7209 9.70403 10.747L9.70216 10.7489C9.69468 10.7526 9.68721 10.7564 9.67786 10.7582C9.56572 10.805 9.45545 10.8367 9.34144 10.8592C9.28163 10.8704 9.21995 10.8797 9.1564 10.8872C9.09285 10.8928 9.02931 10.8965 8.96576 10.8965C8.90408 10.8965 8.84053 10.8928 8.77512 10.8872C8.71157 10.8816 8.64989 10.8722 8.59008 10.8592C8.53027 10.8479 8.47047 10.8311 8.40879 10.8124C8.34898 10.7937 8.28917 10.7713 8.23123 10.747L8.22749 10.7451C8.11722 10.6966 8.01068 10.6386 7.91162 10.5713L7.90789 10.5695C7.85742 10.5358 7.8107 10.5003 7.76584 10.4648C7.72098 10.4274 7.67613 10.3882 7.63314 10.3452L7.63127 10.3433C7.58828 10.3003 7.54903 10.2555 7.51165 10.2106C7.47427 10.1639 7.43876 10.1153 7.40512 10.0667L7.40138 10.0611C7.33596 9.96202 7.27802 9.85736 7.22943 9.74895L7.22756 9.74708C7.22382 9.73961 7.22008 9.73213 7.21821 9.72278C7.19578 9.66858 7.17522 9.61438 7.16027 9.56018C7.14345 9.50411 7.1285 9.44617 7.11915 9.38823C7.10794 9.32842 7.09859 9.26674 7.09112 9.20319C7.08551 9.13965 7.08177 9.0761 7.08177 9.01255C7.08177 8.95087 7.08551 8.88733 7.09112 8.82191C7.09672 8.75836 7.10607 8.69669 7.11915 8.63688C7.13037 8.57707 7.14719 8.51726 7.16588 8.45558C7.18457 8.39577 7.207 8.33596 7.2313 8.27802L7.23316 8.27428C7.25746 8.22008 7.28363 8.16588 7.31166 8.11355C7.34157 8.05934 7.37334 8.00888 7.40698 7.95842L7.40885 7.95468C7.47614 7.85375 7.5509 7.76591 7.63314 7.6818L7.63501 7.67993C7.67799 7.63694 7.72285 7.59769 7.76771 7.56031C7.81443 7.52293 7.86303 7.48742 7.91162 7.45378L7.91723 7.45004C7.9677 7.41827 8.01629 7.38649 8.06675 7.36033C8.11909 7.33042 8.17329 7.30425 8.22936 7.27809L8.23123 7.27622C8.23871 7.27248 8.24618 7.26874 8.25553 7.26687C8.30973 7.24444 8.36206 7.22576 8.41813 7.20893C8.47607 7.19211 8.53214 7.17716 8.59195 7.16595C8.65176 7.15473 8.71344 7.14539 8.77699 7.13791C8.84614 7.1323 8.90782 7.12857 8.97137 7.12857ZM9.23116 7.66685C9.19004 7.65937 9.15079 7.65376 9.10968 7.65003C9.06669 7.64629 9.01996 7.64255 8.97137 7.64255C8.92277 7.64255 8.87605 7.64442 8.83119 7.65003C8.78633 7.65376 8.73961 7.66124 8.69475 7.67058C8.64989 7.67993 8.60691 7.68928 8.56766 7.70236C8.53027 7.71357 8.49289 7.72666 8.45551 7.74161C8.45178 7.74348 8.44617 7.74535 8.44243 7.74722L8.43869 7.74908C8.39757 7.76778 8.35645 7.78646 8.3172 7.80702L8.31347 7.80889C8.27422 7.82945 8.23684 7.85188 8.20132 7.87618L8.19946 7.87805C8.16394 7.90235 8.1303 7.92664 8.09666 7.95281C8.06115 7.98084 8.02937 8.00888 7.9976 8.03878C7.9677 8.06869 7.93966 8.10046 7.91162 8.13411L7.90789 8.13784C7.88172 8.16962 7.85742 8.20326 7.83312 8.23877L7.83126 8.24251C7.80883 8.27615 7.7864 8.31353 7.76584 8.35278C7.74341 8.3939 7.72472 8.43502 7.70603 8.47801V8.47988C7.68921 8.521 7.67426 8.56211 7.66117 8.60323C7.64809 8.64622 7.63688 8.68921 7.6294 8.73407C7.62005 8.78079 7.61445 8.82565 7.60884 8.87237C7.6051 8.91536 7.60323 8.96209 7.60323 9.01068C7.60323 9.05928 7.6051 9.106 7.61071 9.15086C7.61445 9.19572 7.62192 9.24244 7.63127 9.2873C7.64061 9.33216 7.64996 9.37328 7.66304 9.41439C7.67426 9.45364 7.68734 9.49102 7.70229 9.53027C7.70416 9.53401 7.70603 9.53962 7.7079 9.54336L7.70977 9.5471C7.72846 9.58821 7.74715 9.62933 7.76771 9.66858L7.76958 9.67232C7.79014 9.7097 7.81257 9.74895 7.83686 9.78446L7.83873 9.78633C7.86303 9.82184 7.88733 9.85549 7.91536 9.88913C7.9434 9.92277 7.97143 9.95455 8.00321 9.98632C8.03498 10.0181 8.06862 10.048 8.10227 10.0742C8.13591 10.1003 8.16955 10.1265 8.20506 10.1489L8.2088 10.1508C8.24244 10.1732 8.27982 10.1957 8.31907 10.2162C8.36019 10.2386 8.40131 10.2573 8.4443 10.276L8.44617 10.2779C8.48729 10.2947 8.52841 10.3097 8.56952 10.3227C8.61251 10.3358 8.6555 10.347 8.70036 10.3545C8.74708 10.3639 8.79194 10.3695 8.83867 10.3751C8.88165 10.3788 8.92838 10.3807 8.97697 10.3807C9.02557 10.3807 9.07229 10.3788 9.11715 10.3732C9.16201 10.3695 9.20873 10.362 9.25359 10.3527C9.29845 10.3433 9.34144 10.334 9.38069 10.3209C9.41807 10.3097 9.45545 10.2966 9.49096 10.2816C9.49657 10.2779 9.5003 10.2779 9.50404 10.276L9.50778 10.2742C9.5489 10.2555 9.59002 10.2368 9.62927 10.2162L9.63301 10.2143C9.67039 10.1938 9.70964 10.1714 9.74515 10.1471L9.74702 10.1452C9.78253 10.1209 9.81617 10.0966 9.84981 10.0704C9.88533 10.0424 9.9171 10.0144 9.94887 9.98445C9.97878 9.95455 10.0068 9.92277 10.0348 9.88913L10.0386 9.88539C10.0648 9.85362 10.089 9.81998 10.1133 9.78446H10.1152C10.1376 9.75082 10.1601 9.71344 10.1806 9.67419C10.2031 9.63307 10.2218 9.59195 10.2404 9.54897L10.2423 9.5471C10.2591 9.50598 10.2741 9.46486 10.2872 9.42374C10.3003 9.38075 10.3115 9.33776 10.3189 9.29291C10.3283 9.24618 10.3339 9.20132 10.3395 9.1546C10.3432 9.11161 10.3451 9.06488 10.3451 9.01629C10.3451 8.9677 10.3432 8.92097 10.3376 8.87611C10.3339 8.83126 10.3264 8.78453 10.3171 8.73967C10.3077 8.69482 10.2984 8.65183 10.2853 8.61258C10.2741 8.5752 10.261 8.53782 10.246 8.50044C10.2423 8.49483 10.2423 8.49109 10.2404 8.48735L10.2386 8.48362C10.2199 8.4425 10.2012 8.40138 10.1806 8.36213L10.1788 8.35839C10.1582 8.31914 10.1358 8.28176 10.1115 8.24625L10.1096 8.24438C10.0853 8.20887 10.061 8.17522 10.033 8.14158C10.0049 8.10794 9.97691 8.07617 9.94513 8.04439C9.91336 8.01262 9.87972 7.98271 9.84608 7.95655C9.81243 7.93038 9.77879 7.90421 9.74328 7.88179L9.73954 7.87992C9.7059 7.85562 9.66852 7.83506 9.62927 7.8145C9.58815 7.79207 9.54703 7.77338 9.50404 7.75469L9.50217 7.75282C9.46105 7.736 9.41994 7.72105 9.37882 7.70797C9.33583 7.69488 9.29284 7.68367 9.24798 7.67619C9.24238 7.67245 9.23677 7.67058 9.23116 7.66685ZM1.08965 7.53228C1.43542 5.69502 2.40919 4.0783 3.77732 2.91389C5.1791 1.71958 6.99393 1 8.97511 1C10.717 1 12.3282 1.5551 13.644 2.49897C14.9934 3.46713 16.0326 4.8446 16.5765 6.45011L16.0849 6.61645L15.5934 6.78279C15.5803 6.74167 15.5653 6.70056 15.5504 6.66131C15.0663 5.31747 14.1804 4.16241 13.0384 3.34377C11.8927 2.52326 10.489 2.04105 8.97324 2.04105C7.24438 2.04105 5.66318 2.66718 4.44643 3.70262C3.30258 4.67639 2.47647 6.01275 2.14565 7.53415H3.20913L1.6055 9.48729L0 7.53228H1.08965Z" fill="#E0E0E0"/>
</svg>
