<svg width="42" height="42" viewBox="0 0 18 18" fill="none" xmlns="http://www.w3.org/2000/svg">
<path fill-rule="evenodd" clip-rule="evenodd" d="M8.99495 14.235C9.27399 14.235 9.5 14.4535 9.5 14.7232C9.5 14.993 9.27399 15.2115 8.99495 15.2115C8.71591 15.2115 8.4899 14.993 8.4899 14.7232C8.4899 14.4535 8.71591 14.235 8.99495 14.235ZM5.73232 9.23663C5.72475 9.22199 5.71591 9.20856 5.70581 9.19513C5.66162 9.12556 5.61742 9.05598 5.57323 8.97665C5.52904 8.8912 5.48485 8.81064 5.44571 8.73619C5.40657 8.65563 5.36869 8.57018 5.33586 8.48474C5.30808 8.41029 5.27525 8.32484 5.24242 8.22353C5.19318 8.0795 5.05429 7.98918 4.9053 7.98918H3.94949C3.91667 7.98918 3.88384 7.9843 3.86111 7.97331C3.83965 7.96232 3.81187 7.94646 3.79545 7.92571C3.77399 7.90374 3.75631 7.88299 3.74621 7.86223C3.73485 7.84148 3.7298 7.80853 3.7298 7.77679V6.61234C3.7298 6.5806 3.73485 6.55375 3.74116 6.53178C3.75253 6.50981 3.76894 6.48417 3.79672 6.45732C3.81818 6.43657 3.84091 6.41948 3.86237 6.4146C3.8851 6.40361 3.91793 6.39873 3.95076 6.39873H4.82828C5.00505 6.39873 5.14899 6.27545 5.18182 6.11555C5.20328 6.02523 5.22601 5.93978 5.24747 5.86411C5.27525 5.77866 5.30303 5.6981 5.33586 5.61266C5.36869 5.5321 5.40152 5.44666 5.44571 5.36732C5.48485 5.28188 5.52904 5.20742 5.56692 5.13296C5.64394 4.99382 5.61616 4.83392 5.50631 4.72772L4.82197 4.06005C4.81692 4.05517 4.81692 4.05517 4.81061 4.05517C4.78914 4.03442 4.77146 4.01245 4.76136 3.9917C4.75 3.97095 4.75 3.94898 4.75 3.91724C4.75 3.88551 4.75505 3.85865 4.76641 3.83668C4.77778 3.80983 4.79419 3.78908 4.82197 3.76223L5.66667 2.95052C5.69444 2.92367 5.71591 2.9078 5.74369 2.89682C5.76641 2.88583 5.79293 2.88095 5.82702 2.88095C5.85985 2.88095 5.88763 2.88583 5.91035 2.89682C5.93308 2.9078 5.9596 2.92367 5.98232 2.94442H5.98737L6.61111 3.5474C6.73232 3.66458 6.9255 3.68045 7.06439 3.58524C7.13636 3.54252 7.20833 3.4998 7.2904 3.45708C7.37879 3.41435 7.46212 3.37163 7.53914 3.33379C7.62247 3.29596 7.71086 3.25934 7.79924 3.2276C7.87626 3.20075 7.96465 3.16901 8.06944 3.13728C8.21843 3.08967 8.31187 2.95541 8.31187 2.81138V1.88616C8.31187 1.85442 8.31692 1.82269 8.32828 1.80072C8.33965 1.77997 8.35606 1.75799 8.37247 1.73724C8.3952 1.71649 8.41667 1.69941 8.43813 1.69452C8.4596 1.68354 8.49369 1.67866 8.52651 1.67866H9.375H9.3851H9.47222C9.50505 1.67866 9.53788 1.68354 9.56061 1.69452C9.58207 1.69941 9.6048 1.71649 9.62626 1.73724C9.64268 1.75799 9.65909 1.77997 9.67045 1.80072C9.68182 1.82147 9.68687 1.85442 9.68687 1.88616V2.81016C9.68687 2.95419 9.7803 3.08723 9.92929 3.13606C10.0341 3.16779 10.1225 3.19953 10.1995 3.22638C10.2879 3.25812 10.3763 3.29596 10.4596 3.33257C10.5366 3.37041 10.6199 3.41313 10.7083 3.45585C10.7917 3.49858 10.8624 3.5413 10.9343 3.58402C11.072 3.68045 11.2652 3.66458 11.3876 3.54618L12.0114 2.9432H12.0164C12.0379 2.92245 12.0657 2.90536 12.0884 2.8956C12.1098 2.88461 12.1376 2.87973 12.1717 2.87973C12.2045 2.87973 12.2323 2.88461 12.2551 2.8956C12.2828 2.90658 12.3043 2.92245 12.3321 2.9493L13.1768 3.76101C13.2045 3.78786 13.221 3.80861 13.2323 3.83546C13.2437 3.85621 13.2487 3.88307 13.2487 3.91602C13.2487 3.94776 13.2487 3.96973 13.2374 3.99048C13.226 4.01245 13.2096 4.0332 13.1881 4.05395C13.1831 4.05395 13.1831 4.05395 13.1768 4.05883L12.4924 4.7265C12.3826 4.8327 12.3548 4.99382 12.4318 5.13174C12.471 5.2062 12.5152 5.28066 12.553 5.3661C12.5972 5.44666 12.63 5.5321 12.6629 5.61144C12.6957 5.69688 12.7235 5.77744 12.7513 5.86289C12.7727 5.93734 12.7955 6.02278 12.8169 6.11433C12.8497 6.27423 12.9937 6.39751 13.1705 6.39751H14.048C14.0808 6.39751 14.1136 6.40239 14.1364 6.41338C14.1578 6.41826 14.1806 6.43413 14.202 6.4561C14.2298 6.48295 14.2462 6.50981 14.2576 6.53056C14.2626 6.55131 14.2689 6.57816 14.2689 6.61112V7.77557C14.2689 7.80731 14.2639 7.83904 14.2525 7.86101C14.2412 7.88298 14.2247 7.90374 14.2033 7.92449C14.1869 7.94524 14.1591 7.96232 14.1376 7.97209C14.1149 7.98307 14.0821 7.98796 14.0492 7.98796H13.0934C12.9444 7.98796 12.8068 8.07828 12.7563 8.22231C12.7235 8.32362 12.6907 8.40907 12.6629 8.48352C12.63 8.56896 12.5909 8.65441 12.553 8.73497C12.5139 8.80942 12.4697 8.88998 12.4255 8.97542C12.3813 9.05598 12.3371 9.12556 12.2929 9.19391C12.2828 9.20734 12.274 9.22077 12.2664 9.23541H13.1023C13.1376 9.16706 13.173 9.09382 13.2096 9.01815C13.2538 8.92172 13.298 8.82651 13.3371 8.73008C13.3422 8.71422 13.3535 8.69225 13.3598 8.67638H14.0669C14.1944 8.67638 14.3157 8.65563 14.4255 8.61291C14.5354 8.57018 14.6414 8.50061 14.7298 8.41517C14.8182 8.32973 14.8902 8.2333 14.9343 8.121C14.9785 8.00871 15 7.89641 15 7.77435V6.61112C15 6.49394 14.9722 6.37676 14.928 6.26935C14.8838 6.16315 14.8182 6.06673 14.7298 5.98128L14.7247 5.9764C14.6364 5.89096 14.5366 5.82139 14.4268 5.77866C14.3169 5.73106 14.1944 5.70909 14.0682 5.70909H13.4659C13.4659 5.69322 13.4609 5.68224 13.4545 5.66637C13.4217 5.56506 13.3889 5.46375 13.3497 5.36732C13.3056 5.26601 13.2664 5.16958 13.2222 5.07926C13.2172 5.06827 13.2058 5.0524 13.2008 5.03654L13.6982 4.55074C13.7917 4.47018 13.8586 4.37497 13.9078 4.26756C13.952 4.16136 13.9798 4.04297 13.9798 3.9209C13.9798 3.79762 13.9583 3.68655 13.9078 3.57425C13.8586 3.46806 13.7917 3.37163 13.7033 3.28619H13.6982L12.8535 2.47449C12.7652 2.38905 12.6654 2.32558 12.5492 2.27675C12.4331 2.22915 12.3169 2.20718 12.1907 2.20718C12.0694 2.20718 11.9482 2.22793 11.8321 2.27675C11.7159 2.31947 11.6162 2.38905 11.5278 2.47449L11.0972 2.88583L11.0644 2.86996C10.976 2.82236 10.8763 2.77964 10.7715 2.73082C10.6717 2.6881 10.5732 2.64537 10.4735 2.60754C10.4571 2.60265 10.4343 2.59167 10.4179 2.58556V1.90203C10.4179 1.77875 10.3965 1.66157 10.3523 1.55537C10.3081 1.44796 10.2361 1.34665 10.1477 1.26121C10.0543 1.17577 9.95455 1.10619 9.84343 1.06347C9.72854 1.02075 9.61237 1 9.48485 1H9.04924H8.95202H8.51641C8.38889 1 8.27399 1.02075 8.15783 1.06347C8.04798 1.10619 7.94823 1.17577 7.85353 1.26121C7.76515 1.34665 7.69318 1.44796 7.64899 1.55537C7.6048 1.66157 7.58333 1.77997 7.58333 1.90203V2.58556C7.56692 2.59045 7.54419 2.60143 7.52778 2.60754C7.42803 2.64537 7.32955 2.6881 7.2298 2.73082C7.125 2.77842 7.02525 2.82114 6.93687 2.86996L6.90404 2.88583L6.47348 2.47449C6.3851 2.38905 6.28535 2.31947 6.16919 2.27675C6.05303 2.22915 5.93182 2.20718 5.81061 2.20718C5.68308 2.20718 5.56818 2.22793 5.45202 2.27675C5.33586 2.32436 5.23611 2.38905 5.14773 2.47449L4.30303 3.28619H4.29798C4.2096 3.37163 4.14394 3.46806 4.09343 3.57425C4.04419 3.68533 4.02146 3.79762 4.02146 3.91968C4.02146 4.04297 4.04924 4.16014 4.09343 4.26634C4.14268 4.37253 4.2096 4.46896 4.30303 4.54952L4.8005 5.03532C4.79545 5.05118 4.78409 5.06705 4.77904 5.07804C4.73485 5.16836 4.69571 5.26479 4.65152 5.3661C4.61237 5.46253 4.57955 5.56384 4.54672 5.66515C4.54167 5.68102 4.53535 5.692 4.53535 5.70787H3.93308C3.80556 5.70787 3.68434 5.72984 3.57449 5.77744C3.46465 5.82016 3.3649 5.88974 3.27652 5.97518L3.27146 5.98006C3.18308 6.06551 3.11742 6.16193 3.07323 6.26813C3.02778 6.37554 3 6.49394 3 6.61112V7.77435C3 7.89763 3.02146 8.00871 3.06566 8.121C3.10985 8.2333 3.18182 8.32973 3.2702 8.41517C3.35859 8.50061 3.46338 8.57018 3.57449 8.61291C3.68434 8.65563 3.80682 8.67638 3.93308 8.67638H4.64015C4.6452 8.69225 4.65657 8.71422 4.66288 8.73008C4.70202 8.82651 4.74621 8.92172 4.7904 9.01815C4.82828 9.09504 4.86237 9.16828 4.89773 9.23541H5.73232V9.23663ZM7.09975 8.1564C6.99495 8.16006 6.91414 8.18081 6.85985 8.21743C6.82828 8.23818 6.80556 8.26381 6.79167 8.29433C6.77525 8.32851 6.76768 8.37001 6.76894 8.41761C6.77273 8.55676 6.84848 8.73985 6.99495 8.95101L6.99747 8.95345L7.47222 9.6846C7.66288 9.97754 7.86237 10.2766 8.11111 10.4951C8.34975 10.7062 8.63889 10.8491 9.02273 10.8503C9.43687 10.8515 9.74116 10.7026 9.98737 10.4804C10.2437 10.2485 10.4457 9.93116 10.6439 9.6138L11.1793 8.76182C11.279 8.54211 11.3157 8.39442 11.2929 8.30775C11.279 8.25649 11.221 8.23086 11.1199 8.22597C11.0985 8.22475 11.077 8.22475 11.0543 8.22475C11.0303 8.22597 11.0051 8.2272 10.9798 8.22964C10.9659 8.23086 10.952 8.22964 10.9381 8.2272C10.8902 8.22964 10.8409 8.22597 10.7917 8.21987L10.9747 7.43502C9.6149 7.64253 8.59722 6.66604 7.15909 7.23973L7.26263 8.16372C7.20581 8.16494 7.15025 8.16372 7.09975 8.1564ZM11.303 7.99162C11.4343 8.03068 11.5189 8.11124 11.5543 8.24184C11.5922 8.38709 11.5505 8.59094 11.4242 8.86923C11.4217 8.87412 11.4192 8.879 11.4167 8.88388L10.875 9.74563C10.6667 10.0776 10.4545 10.4109 10.1717 10.6672L10.1578 10.6794C10.1843 10.7172 10.2146 10.7587 10.2449 10.8027C10.3384 10.9357 10.4457 11.0883 10.5455 11.2067C11.1338 11.5607 12.428 11.6559 12.9343 11.9281C14.2222 12.6226 13.7525 14.3095 13.846 15.5227C13.8182 15.8096 13.6503 15.9744 13.3194 15.9988H12.9621L13.3548 13.1218C13.3851 12.8972 13.221 12.7141 13.0177 12.7141H10.2563C10.3245 12.2442 10.3737 11.795 10.3977 11.4557C10.2689 11.3178 10.1313 11.1225 10.0126 10.954C9.98611 10.9174 9.96086 10.8808 9.93687 10.8478C9.68813 11.009 9.39268 11.109 9.02273 11.1078C8.60985 11.1066 8.28788 10.9699 8.02146 10.7612C7.94697 10.9772 7.83712 11.275 7.73106 11.4179C7.72222 11.4301 7.71086 11.441 7.69823 11.4496C7.74369 11.7999 7.80682 12.2491 7.88131 12.7154H5.05303C4.85101 12.7154 4.68561 12.8984 4.71591 13.123L5.10859 16H4.75C4.41919 15.9756 4.25126 15.8108 4.22348 15.524C4.2399 14.2387 3.73485 12.6836 5.1351 11.9293C5.64773 11.6522 6.9697 11.5582 7.54672 11.1933C7.6351 11.0334 7.73232 10.7453 7.79167 10.5744C7.79798 10.5549 7.78788 10.5866 7.79798 10.5585C7.58586 10.3388 7.41288 10.0789 7.24621 9.82252L6.77146 9.0926C6.59722 8.84238 6.50758 8.61291 6.50126 8.42493C6.49874 8.33705 6.51389 8.25649 6.54798 8.18569C6.58333 8.11246 6.63763 8.05021 6.71086 8.0026C6.74495 7.98063 6.78409 7.9611 6.82576 7.94524C6.79545 7.54854 6.78283 7.04931 6.80303 6.63187C6.81313 6.533 6.83333 6.43291 6.86111 6.33404C7.03535 5.7335 7.56944 5.30019 8.17929 5.09635C8.47475 4.99748 8.36111 4.7619 8.66035 4.77777C9.36995 4.81561 10.4634 5.25747 10.8838 5.72618C11.4747 6.38164 11.322 7.18968 11.303 7.99162ZM8.05556 12.0086C7.81566 11.745 7.79545 11.4691 8.05556 11.1774C8.35606 11.2506 8.63131 11.3764 8.8851 11.546C8.93939 11.5228 9.00379 11.5131 9.06566 11.5179C9.32955 11.3373 9.6654 11.2641 9.9596 11.1286C10.3106 11.4594 10.2727 11.7633 9.92803 12.0452C9.73485 12.0025 9.55177 11.9366 9.37626 11.8499C9.37121 11.8939 9.35985 11.9415 9.33838 11.9928L9.42803 12.7141H8.71212L8.80177 11.9928C8.74621 11.9012 8.72475 11.8231 8.72601 11.7584C8.51768 11.8792 8.29167 11.9574 8.05556 12.0086Z" fill="#E0E0E0"/>
</svg>
