<svg width="42" height="42" viewBox="0 0 18 18" fill="none" xmlns="http://www.w3.org/2000/svg">
<path d="M0.949626 2.92745L0.950033 2.92707C1.36177 2.54192 1.85193 2.35 2.43858 2.35H6.94729H8.93332C9.52892 2.35 10.0161 2.53785 10.4182 2.92504L10.4194 2.9262C10.8264 3.31433 11.0219 3.76814 11.0219 4.30465V8.34789C11.0219 8.8906 10.8297 9.34221 10.4225 9.72344C10.0093 10.106 9.51822 10.3011 8.93332 10.3011H7.31881H7.14891L7.04381 10.4346C6.53761 11.0775 5.92199 11.6248 5.21341 12.0614L5.21325 12.0615C4.83314 12.2959 4.42611 12.501 3.99019 12.6757C4.08358 12.5344 4.16469 12.3898 4.23257 12.2419C4.45825 11.7683 4.63572 11.2654 4.78029 10.743L4.90297 10.2996H4.44296H2.43858C1.84669 10.2996 1.35742 10.1073 0.951259 9.72373L0.950848 9.72334C0.546018 9.34222 0.35 8.88956 0.35 8.34644V4.3032C0.35 3.7597 0.541189 3.3083 0.949626 2.92745Z" stroke="#E0E0E0" stroke-width="0.7"/>
<path d="M18.001 6.55314V10.5964C18.001 10.9632 17.9307 11.3083 17.7916 11.6288C17.6509 11.9494 17.4476 12.2397 17.1662 12.4981C17.0485 12.6093 16.9186 12.7119 16.7901 12.7985C16.6556 12.8895 16.5149 12.966 16.3758 13.0324C16.3697 13.0382 16.359 13.0382 16.3544 13.0425C16.1709 13.1234 15.9829 13.1797 15.7887 13.2202C15.5838 13.2606 15.3744 13.2808 15.1588 13.2808H13.0948C13.1223 13.3617 13.1483 13.444 13.1804 13.5248C13.2614 13.7487 13.3578 13.9725 13.4602 14.1905V14.1963C13.5519 14.3999 13.6804 14.5934 13.8378 14.7869C13.9999 14.9847 14.1925 15.1782 14.4249 15.3775C14.5916 15.5147 14.6084 15.7544 14.457 15.9118C14.3546 16.023 14.1987 16.0649 14.058 16.0288C13.5626 15.906 13.0887 15.7544 12.6468 15.571C12.205 15.3876 11.7861 15.1739 11.3916 14.9299C11.0033 14.6902 10.6379 14.4158 10.2984 14.1169C10.0125 13.8627 9.74346 13.5826 9.49119 13.288H8.08003C7.81553 13.288 7.55714 13.2577 7.31558 13.197C7.07401 13.1364 6.84162 13.0396 6.62146 12.9126C6.43341 12.8057 6.37378 12.5718 6.48692 12.3942C6.60006 12.2166 6.84774 12.1602 7.03579 12.2671C7.18715 12.3537 7.34769 12.4202 7.52504 12.4649C7.6978 12.5111 7.88586 12.5314 8.08003 12.5314H9.68995C9.81379 12.5314 9.93151 12.5819 10.0125 12.6844C10.2663 13.005 10.5461 13.2996 10.8519 13.5696C11.1531 13.8396 11.4818 14.0837 11.8365 14.3017C12.1759 14.5097 12.5367 14.6988 12.919 14.8606C12.8441 14.7436 12.7844 14.6266 12.7248 14.5097C12.6178 14.2757 12.5153 14.036 12.4236 13.7819C12.338 13.5422 12.257 13.2938 12.1866 13.044C12.1698 13.0035 12.1652 12.9573 12.1652 12.9111C12.1652 12.7032 12.3426 12.5299 12.5689 12.5299H15.1588C15.3209 12.5299 15.4707 12.514 15.6159 12.4837C15.7566 12.4534 15.885 12.4129 16.0089 12.361C16.015 12.3552 16.0196 12.3552 16.0257 12.3509C16.1281 12.3046 16.2306 12.2498 16.3223 12.1877C16.4186 12.1213 16.5103 12.0505 16.5975 11.9639C16.7962 11.7761 16.9476 11.5668 17.0439 11.3429C17.1402 11.1191 17.1892 10.8693 17.1892 10.6007V6.55747C17.1892 6.28744 17.1402 6.03907 17.0439 5.81525C16.9476 5.59142 16.7962 5.38349 16.5975 5.19432C16.3987 5.0066 16.177 4.86364 15.9401 4.77267C15.7031 4.68169 15.4386 4.63549 15.1542 4.63549H12.4496C12.2294 4.63549 12.046 4.46798 12.046 4.25427C12.046 4.04633 12.2233 3.87305 12.4496 3.87305H15.1588C15.5471 3.87305 15.908 3.93947 16.2458 4.07088C16.5853 4.20373 16.8864 4.39578 17.1662 4.6557C17.4414 4.91563 17.6509 5.20443 17.7854 5.525C17.9261 5.84557 17.9949 6.18636 17.9949 6.55169H18.001V6.55314Z" fill="#E0E0E0"/>
</svg>
