<svg width="42" height="42" viewBox="0 0 18 18" fill="none" xmlns="http://www.w3.org/2000/svg">
<path d="M6.42055 2H11.5794C11.9705 2 12.3273 2.16406 12.5839 2.42773C12.8404 2.69141 13 3.0582 13 3.46016V14.9398C13 15.3418 12.8404 15.7086 12.5839 15.9723C12.3273 16.2359 11.9705 16.4 11.5794 16.4H6.42055C6.0295 16.4 5.67265 16.2359 5.41613 15.9723C5.15961 15.7086 5 15.3418 5 14.9398V3.46016C5 3.0582 5.15961 2.69141 5.41613 2.42773C5.67265 2.16406 6.0295 2 6.42055 2ZM8.23557 15.2422C8.14322 15.2422 8.06342 15.1648 8.06342 15.0652C8.06342 14.9703 8.13866 14.8883 8.23557 14.8883H9.79863C9.89098 14.8883 9.97079 14.9656 9.97079 15.0652C9.97079 15.1602 9.89554 15.2422 9.79863 15.2422H8.23557ZM8.0885 2.83789C8.24013 2.83789 8.36212 2.96328 8.36212 3.11914C8.36212 3.275 8.24013 3.40039 8.0885 3.40039C7.93687 3.40039 7.81488 3.275 7.81488 3.11914C7.81488 2.96328 7.93687 2.83789 8.0885 2.83789ZM9.00057 2.83789C9.1522 2.83789 9.27419 2.96328 9.27419 3.11914C9.27419 3.275 9.1522 3.40039 9.00057 3.40039C8.84894 3.40039 8.72695 3.275 8.72695 3.11914C8.72695 2.96328 8.84894 2.83789 9.00057 2.83789ZM9.91264 2.83789C10.0643 2.83789 10.1863 2.96328 10.1863 3.11914C10.1863 3.275 10.0643 3.40039 9.91264 3.40039C9.76101 3.40039 9.63902 3.275 9.63902 3.11914C9.63902 2.96328 9.76101 2.83789 9.91264 2.83789ZM5.34089 13.6344H12.6603V4.25117H5.34089V13.6344ZM12.6591 13.9848H5.34089V14.9352C5.34089 15.2422 5.46288 15.5188 5.66011 15.7168C5.85735 15.9195 6.12641 16.0449 6.42055 16.0449H11.5794C11.8782 16.0449 12.1472 15.9195 12.3399 15.7168C12.5371 15.5141 12.6591 15.2375 12.6591 14.9352V13.9848ZM5.34089 3.89609H12.6603V3.46016C12.6603 3.15313 12.5383 2.87656 12.341 2.67852C12.1438 2.47578 11.8747 2.35039 11.5806 2.35039H6.42055C6.12185 2.35039 5.85279 2.47578 5.66011 2.67852C5.46288 2.88125 5.34089 3.15781 5.34089 3.46016V3.89609Z" fill="#E0E0E0"/>
<path d="M9.49809 7.73916H8.73099C8.53949 7.73916 8.38133 7.89316 8.38133 8.08197V8.83406C8.38133 9.02287 8.53841 9.17688 8.73099 9.17688H9.49809C9.69067 9.17688 9.84775 9.02287 9.84775 8.83406V8.08197C9.84775 7.89316 9.69067 7.73916 9.49809 7.73916Z" fill="#E0E0E0"/>
<path d="M7.29255 7.73916H6.52545C6.33286 7.73916 6.17471 7.89316 6.17579 8.08197V8.83406C6.17579 9.02287 6.33286 9.17688 6.52545 9.17688H7.29255C7.48513 9.17688 7.64221 9.02287 7.64221 8.83406V8.08197C7.64221 7.89316 7.48513 7.73916 7.29255 7.73916Z" fill="#E0E0E0"/>
<path d="M11.7047 5.58838H10.9376C10.7461 5.58838 10.588 5.74238 10.588 5.9312V6.68328C10.588 6.8721 10.745 7.0261 10.9376 7.0261H11.7047C11.8973 7.0261 12.0544 6.8721 12.0544 6.68328V5.9312C12.0544 5.74238 11.8973 5.58838 11.7047 5.58838Z" fill="#E0E0E0"/>
<path d="M9.49809 5.58838H8.73099C8.53949 5.58838 8.38133 5.74238 8.38133 5.9312V6.68328C8.38133 6.8721 8.53841 7.0261 8.73099 7.0261H9.49809C9.69067 7.0261 9.84775 6.8721 9.84775 6.68328V5.9312C9.84775 5.74238 9.69067 5.58838 9.49809 5.58838Z" fill="#E0E0E0"/>
<path d="M7.29255 5.58838H6.52545C6.33286 5.58838 6.17471 5.74238 6.17579 5.9312V6.68328C6.17579 6.8721 6.33286 7.0261 6.52545 7.0261H7.29255C7.48513 7.0261 7.64221 6.8721 7.64221 6.68328V5.9312C7.64221 5.74238 7.48513 5.58838 7.29255 5.58838Z" fill="#E0E0E0"/>
</svg>
