<svg width="42" height="42" viewBox="0 0 18 18" fill="none" xmlns="http://www.w3.org/2000/svg">
<path d="M12.6489 5.13787C12.5389 5.1893 12.4274 5.24571 12.3177 5.30544C11.9883 5.48761 11.6628 5.71059 11.3306 5.96643L10.6215 5.20025C10.8661 4.98623 11.1312 4.79112 11.4125 4.61857C11.6364 4.4802 11.8709 4.35709 12.1128 4.25191C12.2095 4.20611 12.3061 4.16331 12.4056 4.12349C11.9384 3.34205 11.2659 2.78227 10.504 2.43684C8.99022 1.75262 7.10514 1.90128 5.77167 2.87883C5.00562 3.43894 4.42414 4.27679 4.19984 5.38707L4.12953 5.73382L3.7632 5.79488C3.40426 5.85427 3.08399 5.9359 2.80239 6.03943C2.52993 6.13931 2.287 6.26241 2.07465 6.40742C1.9045 6.52356 1.7579 6.65363 1.6338 6.79432C1.24813 7.23 1.06954 7.77585 1.07376 8.32933C1.07833 8.89011 1.27169 9.45719 1.62923 9.92307C2.37559 10.89 3.17785 10.9215 4.30355 10.9215C4.29195 11.0489 4.28562 11.1777 4.28562 11.3081C4.28562 11.5221 4.30215 11.7328 4.33308 11.9389C2.86039 11.9389 1.76598 11.8344 0.759111 10.519C0.269738 9.88325 0.00606662 9.10612 9.00762e-05 8.33165C-0.0055349 7.54922 0.252159 6.77076 0.809033 6.1403C0.989032 5.9359 1.20102 5.74776 1.4443 5.58185C1.72731 5.38839 2.05075 5.22514 2.41743 5.09141C2.66914 4.9985 2.93844 4.92086 3.22285 4.85881C3.54523 3.65064 4.23219 2.72022 5.11531 2.07416C6.77011 0.864006 9.09182 0.670886 10.9702 1.52267C11.9968 1.98888 12.8932 2.76402 13.4751 3.85505C13.7092 3.82054 13.9437 3.80262 14.1764 3.80527C16.6114 3.82253 18.0246 5.78061 17.9997 7.92119C17.9895 8.79355 17.7406 9.66193 17.2305 10.3007C16.8982 10.7168 16.4718 11.0569 15.9606 11.3263C15.1598 11.7494 14.5407 11.9389 13.6674 11.9389C13.6983 11.7328 13.7145 11.5221 13.7145 11.3081C13.7145 11.1777 13.7082 11.0489 13.6966 10.9215C14.3178 10.9215 14.8901 10.7257 15.4319 10.4404C15.8172 10.237 16.1322 9.98943 16.3677 9.69245C16.7341 9.23188 16.9144 8.58085 16.9214 7.91289C16.9415 6.34603 15.9902 4.83093 14.1691 4.82032C13.6667 4.816 13.1439 4.93081 12.6489 5.13787Z" fill="#E0E0E0"/>
<path d="M11.1993 10.2042C11.4034 10.2042 11.5689 10.3602 11.5689 10.5527C11.5689 10.7451 11.4034 10.9012 11.1993 10.9012C10.9952 10.9012 10.8297 10.7451 10.8297 10.5527C10.8297 10.3602 10.9952 10.2042 11.1993 10.2042ZM11.1993 14.2258C11.4034 14.2258 11.5689 14.3819 11.5689 14.5743C11.5689 14.7668 11.4034 14.9228 11.1993 14.9228C10.9952 14.9228 10.8297 14.7668 10.8297 14.5743C10.8297 14.3819 10.9952 14.2258 11.1993 14.2258ZM11.1993 12.2559C11.4034 12.2559 11.5689 12.4119 11.5689 12.6044C11.5689 12.7968 11.4034 12.9529 11.1993 12.9529C10.9952 12.9529 10.8297 12.7968 10.8297 12.6044C10.8297 12.4119 10.9952 12.2559 11.1993 12.2559ZM6.56736 9.26066C7.18429 9.45482 8.04298 9.57502 8.99691 9.57502C9.95094 9.57502 10.8095 9.45482 11.4266 9.26066C11.9681 9.09021 12.3031 8.88382 12.3031 8.68197C12.3031 8.48012 11.9681 8.27376 11.4266 8.10331C10.8096 7.90912 9.95094 7.78895 8.99691 7.78895C8.04298 7.78895 7.18429 7.90912 6.56736 8.10331C5.41835 8.46497 5.38678 8.88905 6.56736 9.26066ZM12.3044 13.3737C12.1115 13.4981 11.8658 13.6078 11.5753 13.6992C10.9107 13.9084 9.99868 14.0378 8.99691 14.0378C7.99513 14.0378 7.08321 13.9084 6.41858 13.6992C6.13178 13.6089 5.88748 13.5009 5.69566 13.3785V14.7058C5.73838 14.8941 6.0634 15.0838 6.56726 15.2424C7.18429 15.4365 8.04298 15.5567 8.99691 15.5567C9.95094 15.5567 10.8095 15.4365 11.4266 15.2424C11.8005 15.1247 12.076 14.9898 12.2106 14.8512C12.3217 14.7367 12.3044 14.6614 12.3044 14.5247V13.3737ZM5.2207 8.68197C5.2207 8.26826 5.67847 7.91727 6.41858 7.68433C7.08321 7.47515 7.9952 7.3457 8.99691 7.3457C9.99868 7.3457 10.9107 7.47515 11.5753 7.68433C12.249 7.89639 12.6887 8.2062 12.7621 8.57221C12.771 8.59545 12.7757 8.62047 12.7757 8.64663V14.7554C12.7757 15.1788 11.9177 15.5536 11.5753 15.6614C10.9107 15.8705 9.99868 16 8.99691 16C7.99513 16 7.08321 15.8705 6.41858 15.6614C6.06818 15.5511 5.22559 15.1886 5.22559 14.7554V14.6134C5.22559 12.6363 5.2207 10.6587 5.2207 8.68197ZM5.69566 12.7437C5.73838 12.9319 6.0634 13.1216 6.56726 13.2802C7.18429 13.4744 8.04298 13.5946 8.99691 13.5946C9.95094 13.5946 10.8095 13.4744 11.4266 13.2802C11.9681 13.1098 12.3031 12.9034 12.3031 12.7015H12.3057V11.4115C12.1127 11.536 11.8658 11.6456 11.5753 11.7371C10.9107 11.9463 9.99868 12.0756 8.99691 12.0756C7.99513 12.0756 7.08321 11.9463 6.41858 11.7371C6.13178 11.6468 5.88748 11.5388 5.69566 11.4164V12.7437ZM5.69566 10.7815C5.73838 10.9697 6.0634 11.1594 6.56726 11.3181C7.18429 11.5122 8.04298 11.6324 8.99691 11.6324C9.95094 11.6324 10.8095 11.5123 11.4266 11.3181C11.9681 11.1476 12.3031 10.9412 12.3031 10.7394H12.3057V9.35411C12.1127 9.47856 11.8658 9.58815 11.5753 9.67961C10.9107 9.88878 9.99868 10.0182 8.99691 10.0182C7.9952 10.0182 7.08321 9.88878 6.41858 9.67961C6.13178 9.58937 5.88748 9.48141 5.69566 9.35885V10.7815Z" fill="#E0E0E0"/>
</svg>
