<svg width="42" height="42" viewBox="0 0 18 18" fill="none" xmlns="http://www.w3.org/2000/svg">
<path fill-rule="evenodd" clip-rule="evenodd" d="M12.7669 6.49225H16.0846C16.3372 6.49225 16.5677 6.59644 16.7318 6.76393C16.8984 6.93274 17 7.16485 17 7.41939V14.5173C17 14.7732 16.8971 15.0066 16.7318 15.1728C16.5651 15.3416 16.3359 15.4444 16.0846 15.4444H12.7669C12.5143 15.4444 12.2839 15.3403 12.1198 15.1728C11.9531 15.004 11.8516 14.7718 11.8516 14.5173V7.41807C11.8516 7.16222 11.9544 6.92878 12.1198 6.76261C12.2865 6.5938 12.5143 6.49225 12.7669 6.49225ZM15.7591 10.5371L14.2188 10.8483L14.5299 10.3815C14.0313 9.86449 13.4844 9.68513 12.8398 9.8935C13.5117 9.01649 14.4258 8.9967 15.151 9.44906L15.4688 8.97296L15.7591 10.5371ZM8.46094 8.19749L10.0013 7.88625L9.6901 8.35312C10.1888 8.8701 10.7357 9.04946 11.3802 8.84108C10.7083 9.7181 9.79427 9.73788 9.06901 9.28553L8.7513 9.76162L8.46094 8.19749ZM1.39714 3H15.2148C15.4336 3 15.612 3.18068 15.612 3.40224V5.83416H14.7682V4.19881C14.7682 4.00363 14.6107 3.84273 14.4167 3.84273H2.19401C2.0013 3.84273 1.84245 4.00231 1.84245 4.19881V11.0409C1.84245 11.2361 2 11.397 2.19401 11.397H10.987V13.0758H1.39714C1.17839 13.0758 1 12.8952 1 12.6736V3.40224C1 3.18068 1.17839 3 1.39714 3ZM10.1068 13.6311C10.1159 14.2628 10.3724 14.8272 11.069 15.273H5.54297C6.09896 14.8642 6.50651 14.367 6.50521 13.6311H10.1068ZM8.30599 11.7201C8.58724 11.7201 8.81641 11.9509 8.81641 12.2371C8.81641 12.5219 8.58724 12.754 8.30599 12.754C8.02474 12.754 7.79557 12.5232 7.79557 12.2371C7.79557 11.9522 8.02344 11.7201 8.30599 11.7201ZM14.4245 14.305C14.6315 14.305 14.8008 14.4738 14.8008 14.6861C14.8008 14.8958 14.6341 15.0673 14.4245 15.0673C14.2174 15.0673 14.0482 14.8985 14.0482 14.6861C14.0482 14.4764 14.2148 14.305 14.4245 14.305ZM12.237 14.0148H16.6133V7.75701H12.237V14.0148Z" fill="#E0E0E0"/>
</svg>
