<svg width="42" height="42" viewBox="0 0 18 18" fill="none" xmlns="http://www.w3.org/2000/svg">
<path d="M14.0557 17.9502C13.9452 18.0027 13.8201 18.0141 13.7022 17.9824C13.6391 17.9662 13.5798 17.9373 13.5277 17.8976C13.4757 17.8579 13.432 17.808 13.3991 17.751L12.1278 15.5273L10.9186 16.9057C10.7694 17.082 10.5836 17.2225 10.3746 17.3174C10.2442 17.3745 10.1001 17.3913 9.96042 17.3657C9.88608 17.3496 9.81581 17.3182 9.75399 17.2733C9.69216 17.2285 9.64012 17.1712 9.6011 17.105C9.52054 16.9622 9.47454 16.802 9.4669 16.6377L8.96473 9.9785C8.13565 10.13 7.28048 9.9814 6.54828 9.55852C5.81608 9.13564 5.2533 8.46532 4.95804 7.66442C4.66277 6.86352 4.65375 5.98283 4.93254 5.17587C5.21133 4.36891 5.76026 3.68686 6.48363 3.24861C7.20701 2.81036 8.05895 2.64371 8.89096 2.7777C9.72296 2.91169 10.4823 3.33784 11.0365 3.98184C11.5907 4.62585 11.9047 5.44688 11.9238 6.3018C11.9429 7.15673 11.6658 7.99134 11.1408 8.66015L16.5998 12.4512C16.7361 12.5402 16.8498 12.6607 16.9317 12.8027C16.9679 12.8692 16.9903 12.9425 16.9975 13.018C17.0047 13.0936 16.9965 13.1699 16.9735 13.2422C16.9267 13.3776 16.8407 13.4956 16.7267 13.5805C16.5417 13.7177 16.3287 13.8108 16.1034 13.853H16.0947L14.3227 14.2383L15.5853 16.4707C15.6497 16.5859 15.6663 16.7224 15.6315 16.8501C15.5982 16.9769 15.5202 17.087 15.4122 17.1592C15.4079 17.1629 15.403 17.1659 15.3977 17.1679L14.0875 17.937L14.0586 17.9502H14.0557ZM8.82043 8.07421L8.79301 7.72558V7.70507C8.79108 7.65005 8.80196 7.59535 8.82476 7.5454C8.85069 7.4872 8.89094 7.43675 8.94164 7.39892C8.96304 7.38315 8.98696 7.37126 9.01235 7.36376C9.06143 7.34647 9.11367 7.34047 9.16531 7.34618C9.21589 7.3515 9.26494 7.36694 9.30961 7.39159C9.32438 7.39898 9.33839 7.40781 9.35146 7.41796L9.48278 7.50878C9.52188 7.35976 9.54034 7.20594 9.53761 7.05175V6.89648C9.54045 6.72884 9.50332 6.563 9.42939 6.41308C9.35706 6.27149 9.2451 6.15478 9.10759 6.07763C8.943 5.98913 8.75836 5.94619 8.57223 5.95312H8.26487C8.18534 5.95901 8.10615 5.93788 8.03976 5.89306C8.01439 5.87103 7.9945 5.84322 7.98171 5.81192C7.96892 5.78061 7.96359 5.74668 7.96616 5.71289V5.66894C7.96415 5.63915 7.9681 5.60926 7.97777 5.58107C7.98744 5.55287 8.00264 5.52695 8.02244 5.50488C8.06586 5.46498 8.12022 5.43943 8.17829 5.43164C8.25424 5.42047 8.33105 5.41655 8.40773 5.41992C8.55203 5.41992 8.7122 5.41992 8.88825 5.43164C9.0643 5.44335 9.22303 5.44921 9.36445 5.46093V4.74316C9.27498 4.72119 9.17541 4.70068 9.06286 4.68017C8.9503 4.65966 8.83197 4.64209 8.70499 4.6289C8.64582 4.62158 8.58522 4.61718 8.52317 4.61425V4.24804H8.02677V4.61425C7.80739 4.63381 7.59809 4.71666 7.42358 4.85302C7.31862 4.94893 7.23673 5.068 7.18419 5.20106C7.13166 5.33413 7.10989 5.47765 7.12055 5.6206V5.76708C7.12055 6.14013 7.21242 6.40624 7.39617 6.56542C7.62969 6.73972 7.91653 6.82432 8.2057 6.80419H8.44957C8.50939 6.80228 8.56817 6.82029 8.61696 6.85546C8.6398 6.8721 8.6583 6.89413 8.67087 6.91965C8.68344 6.94517 8.6897 6.97342 8.68912 7.00195V7.05761C8.69103 7.08424 8.68754 7.11098 8.67885 7.13618C8.67016 7.16138 8.65647 7.18449 8.63861 7.20409C8.59509 7.24238 8.54228 7.26818 8.48565 7.2788C8.40251 7.29553 8.31787 7.30339 8.23312 7.30224C8.12634 7.30224 8.01089 7.30224 7.88679 7.30224C7.76269 7.30224 7.64004 7.29491 7.51882 7.28905C7.39761 7.28319 7.28505 7.27441 7.18116 7.26562V7.98339C7.26052 8.00536 7.34278 8.0244 7.42936 8.04052C7.51594 8.05663 7.60396 8.06981 7.69776 8.08153C7.79156 8.09325 7.8868 8.10351 7.98636 8.10937H8.02965V8.5078H8.52605V8.11523C8.62586 8.10758 8.72512 8.09389 8.82332 8.07421H8.82043ZM8.32692 4.49914e-06C9.23356 -0.00108462 10.1299 0.195574 10.9551 0.576668C11.7804 0.957761 12.5154 1.51439 13.1103 2.20888C13.7052 2.90338 14.1462 3.71951 14.4034 4.60205C14.6607 5.48459 14.7281 6.41292 14.6012 7.32421C14.5618 7.61877 14.5015 7.91006 14.4208 8.19579C14.4068 8.24762 14.3804 8.29514 14.344 8.33413C14.3076 8.37313 14.2622 8.4024 14.212 8.41935C14.1617 8.43631 14.1081 8.44041 14.056 8.43131C14.0038 8.42221 13.9546 8.40018 13.9129 8.36718L13.3703 7.99071C13.3144 7.95098 13.2724 7.89422 13.2503 7.82866C13.2283 7.7631 13.2273 7.69211 13.2476 7.62597C13.2925 7.43281 13.3262 7.23717 13.3486 7.04003C13.372 6.83729 13.3836 6.63332 13.3833 6.42919C13.3822 5.4615 13.1114 4.51387 12.6021 3.69584C12.0929 2.87781 11.3659 2.22279 10.5054 1.80651C9.64482 1.39022 8.68577 1.22966 7.7391 1.34339C6.79243 1.45713 5.89679 1.84051 5.15573 2.44921C4.41467 3.05792 3.85845 3.8671 3.55135 4.7832C3.24426 5.69931 3.19885 6.68493 3.42036 7.62614C3.64187 8.56734 4.12126 9.42569 4.80311 10.102C5.48496 10.7782 6.34143 11.2448 7.27351 11.4477C7.34133 11.4625 7.40271 11.4989 7.44867 11.5516C7.49463 11.6043 7.52276 11.6706 7.52893 11.7407L7.57943 12.4087C7.5854 12.4954 7.55735 12.5811 7.5014 12.6469C7.44545 12.7128 7.36613 12.7535 7.28073 12.7602C7.24482 12.7628 7.20874 12.7593 7.17394 12.75C6.55277 12.6343 5.95241 12.424 5.39325 12.126C4.13925 11.4585 3.14166 10.3839 2.55974 9.07355C1.97782 7.76322 1.84512 6.29277 2.18282 4.89692C2.52052 3.50107 3.30915 2.26031 4.42282 1.3727C5.5365 0.48509 6.911 0.00180901 8.32692 4.49914e-06ZM13.7455 17.2075C13.7571 17.2119 13.7699 17.2119 13.7815 17.2075H13.7945L14.9691 16.5395C14.9801 16.5304 14.9882 16.5182 14.9922 16.5044C14.9958 16.4955 14.9958 16.4855 14.9922 16.4765L13.6358 14.0024C13.6237 13.9815 13.6149 13.9587 13.6098 13.935C13.5983 13.8762 13.6102 13.8151 13.643 13.7652C13.6757 13.7152 13.7265 13.6805 13.7844 13.6684L15.7744 13.3301C15.926 13.3032 16.0698 13.2427 16.1957 13.1528C16.2365 13.1244 16.2686 13.0848 16.2881 13.0386C16.2932 13.0239 16.2949 13.0082 16.2932 12.9927C16.2914 12.9772 16.2862 12.9623 16.278 12.9492C16.2334 12.8767 16.1726 12.816 16.1005 12.772L9.50442 8.28222L9.60832 9.79833L10.0542 16.3271C10.0551 16.413 10.0764 16.4974 10.1163 16.5732C10.1227 16.5858 10.1317 16.5969 10.1426 16.6057C10.1536 16.6145 10.1662 16.6209 10.1798 16.6245C10.2291 16.6316 10.2794 16.6234 10.3241 16.6011C10.4634 16.5356 10.5866 16.4396 10.6848 16.3198L11.9128 14.7583C11.9291 14.7408 11.9475 14.7256 11.9677 14.7129C11.9929 14.6979 12.0209 14.6881 12.0499 14.6841C12.0789 14.6802 12.1084 14.682 12.1367 14.6897C12.165 14.6973 12.1915 14.7105 12.2148 14.7286C12.238 14.7466 12.2575 14.7692 12.2721 14.7949L13.7238 17.1943C13.7266 17.198 13.73 17.2011 13.734 17.2033C13.738 17.2056 13.7424 17.207 13.7469 17.2075H13.7455Z" fill="#E0E0E0"/>
</svg>
